<?xml version="1.0" encoding="utf-8"?>
<!-- Generator: Adobe Illustrator 24.0.3, SVG Export Plug-In . SVG Version: 6.00 Build 0)  -->
<svg version="1.1" id="Layer_1" xmlns="http://www.w3.org/2000/svg" xmlns:xlink="http://www.w3.org/1999/xlink" x="0px" y="0px"
	 viewBox="0 0 216 62" style="enable-background:new 0 0 216 62;" xml:space="preserve">
<style type="text/css">
	.st0{fill:#59C9F4;}
	.st1{fill:#FBDF04;}
	.st2{fill:#D6315D;}
	.st3{fill:#74C169;}
	.st4{fill:#FFFFFF;}
</style>
<path d="M208.6,62H7.4C3.3,62,0,58.7,0,54.7V7.3C0,3.3,3.3,0,7.4,0h201.2c4.1,0,7.4,3.3,7.4,7.3v47.3C216,58.7,212.7,62,208.6,62"/>
<path class="st0" d="M16.2,11.2c-0.5,0.5-0.7,1.3-0.7,2.3V49c0,1,0.3,1.8,0.7,2.3l0.1,0.1l19.9-19.9V31L16.3,11"/>
<path class="st1" d="M36.2,30.9v0.5l6.6,6.6L43,38l7.9-4.5c2.2-1.3,2.2-3.4,0-4.6L43,24.4l-0.2-0.1L36.2,30.9z"/>
<path class="st2" d="M16.2,51.2c0.7,0.8,2,0.9,3.3,0.1L43,38l-6.8-6.8L16.2,51.2z"/>
<path class="st3" d="M16.2,11.2l20,20l6.8-6.8L19.5,11.1c-0.6-0.4-1.3-0.5-1.8-0.5C17.1,10.5,16.6,10.7,16.2,11.2"/>
<path class="st4" d="M171.4,47.3h3V27.2h-3V47.3z M198.4,34.4l-3.4,8.7h-0.1l-3.6-8.7h-3.2l5.4,12.2l-3.1,6.8h3.1l8.2-19H198.4z
	 M181.4,45c-1,0-2.4-0.5-2.4-1.7c0-1.6,1.7-2.1,3.2-2.1c1.3,0,1.9,0.3,2.7,0.7C184.7,43.7,183.1,45,181.4,45 M181.7,34
	c-2.2,0-4.4,1-5.4,3.1l2.7,1.1c0.6-1.1,1.6-1.5,2.7-1.5c1.6,0,3.1,0.9,3.2,2.6v0.2c-0.5-0.3-1.7-0.8-3.1-0.8c-2.9,0-5.8,1.6-5.8,4.5
	c0,2.7,2.4,4.4,5,4.4c2,0,3.1-0.9,3.8-2h0.1v1.6h2.9v-7.7C187.9,36,185.2,34,181.7,34 M163.2,36.9h-4.3V30h4.3
	c2.2,0,3.5,1.9,3.5,3.4C166.7,35,165.4,36.9,163.2,36.9 M163.1,27.2h-7.2v20.1h3v-7.6h4.2c3.3,0,6.6-2.4,6.6-6.2
	S166.4,27.2,163.1,27.2 M123.9,45c-2.1,0-3.8-1.7-3.8-4.1c0-2.4,1.7-4.2,3.8-4.2c2,0,3.7,1.8,3.7,4.2C127.6,43.3,126,45,123.9,45
	 M127.4,35.5h-0.1c-0.7-0.8-2-1.5-3.6-1.5c-3.4,0-6.6,3-6.6,6.9c0,3.8,3.1,6.8,6.6,6.8c1.6,0,2.9-0.7,3.6-1.6h0.1v1
	c0,2.6-1.4,4-3.7,4c-1.8,0-3-1.3-3.4-2.4l-2.6,1.1c0.8,1.8,2.7,4,6.1,4c3.5,0,6.5-2.1,6.5-7.1V34.4h-2.9V35.5z M132.3,47.3h3V27.2
	h-3V47.3z M139.7,40.6c-0.1-2.6,2-4,3.6-4c1.2,0,2.2,0.6,2.5,1.4L139.7,40.6z M149,38.4c-0.6-1.5-2.3-4.4-5.9-4.4
	c-3.5,0-6.4,2.8-6.4,6.8c0,3.8,2.9,6.8,6.8,6.8c3.1,0,4.9-1.9,5.7-3l-2.3-1.6c-0.8,1.1-1.8,1.9-3.4,1.9s-2.6-0.7-3.3-2.1l9.1-3.8
	L149,38.4z M76.2,36.1V39h6.9c-0.2,1.6-0.8,2.8-1.6,3.7c-1,1-2.6,2.1-5.4,2.1c-4.3,0-7.6-3.4-7.6-7.7c0-4.3,3.3-7.7,7.6-7.7
	c2.3,0,4,0.9,5.2,2.1l2-2.1c-1.7-1.7-4-2.9-7.3-2.9c-5.9,0-10.8,4.8-10.8,10.6s4.9,10.6,10.8,10.6c3.2,0,5.5-1,7.4-3
	c1.9-1.9,2.5-4.6,2.5-6.8c0-0.7-0.1-1.3-0.2-1.8H76.2z M94,45c-2.1,0-3.9-1.7-3.9-4.1c0-2.5,1.8-4.1,3.9-4.1s3.9,1.7,3.9,4.1
	C97.8,43.3,96.1,45,94,45 M94,34c-3.8,0-6.9,2.9-6.9,6.8c0,3.9,3.1,6.8,6.9,6.8s6.9-2.9,6.9-6.8C100.9,36.9,97.8,34,94,34 M109,45
	c-2.1,0-3.9-1.7-3.9-4.1c0-2.5,1.8-4.1,3.9-4.1c2.1,0,3.9,1.7,3.9,4.1C112.8,43.3,111,45,109,45 M109,34c-3.8,0-6.9,2.9-6.9,6.8
	c0,3.9,3.1,6.8,6.9,6.8c3.8,0,6.9-2.9,6.9-6.8C115.8,36.9,112.8,34,109,34 M73.1,12.3c-0.6-0.5-1.4-0.9-2.3-0.9
	c-2,0-3.5,1.6-3.5,3.6c0,2,1.5,3.6,3.5,3.6c1.7,0,2.9-1,3-2.6h-2.7V15h4.1c0,3.3-1.8,4.9-4.5,4.9c-2.7,0-4.8-2.2-4.8-4.8
	c0-2.7,2.1-4.9,4.8-4.9c1.2,0,2.4,0.5,3.2,1.2 M82.7,10.3v1.2h-4.3v3h3.8v1.2h-3.8v2.9h4.5v1.2h-5.7v-9.5 M90.9,10.3v1.2h-2.9v8.3
	h-1.3v-8.3h-2.9v-1.2 M95.8,19.8h1.3v-9.5h-1.3V19.8z M105.8,10.3v1.2h-2.9v8.3h-1.3v-8.3h-2.9v-1.2 M114.8,18.7
	c2,0,3.5-1.6,3.5-3.6c0-2-1.5-3.6-3.5-3.6c-2,0-3.5,1.6-3.5,3.6C111.3,17.1,112.8,18.7,114.8,18.7 M114.8,10.2
	c2.7,0,4.8,2.2,4.8,4.9c0,2.7-2.1,4.8-4.8,4.8c-2.7,0-4.8-2.2-4.8-4.8C110,12.4,112.1,10.2,114.8,10.2 M127.2,19.8l-4.3-7.1v7.1
	h-1.3v-9.5h1.3l4.3,7.1v-7.1h1.3v9.5"/>
</svg>
