<?xml version="1.0" encoding="utf-8"?>
<!-- Generator: Adobe Illustrator 24.0.3, SVG Export Plug-In . SVG Version: 6.00 Build 0)  -->
<svg version="1.1" id="Layer_1" xmlns="http://www.w3.org/2000/svg" xmlns:xlink="http://www.w3.org/1999/xlink" x="0px" y="0px"
	 viewBox="0 0 216 62" style="enable-background:new 0 0 216 62;" xml:space="preserve">
<style type="text/css">
	.st0{fill:#FFFFFF;}
</style>
<path d="M208.4,62H7.2c-4.1,0-7.4-3.3-7.4-7.3V7.3c0-4,3.3-7.3,7.4-7.3h201.2c4.1,0,7.4,3.3,7.4,7.3v47.3
	C215.8,58.7,212.5,62,208.4,62"/>
<path class="st0" d="M74.5,15.7l-0.8-2.6c-0.2-0.6-0.4-1.4-0.5-2h0c-0.2,0.6-0.3,1.3-0.5,2l-0.8,2.6H74.5z M71.5,17.2l-0.9,3h-2
	L72,9.6h2.4l3.4,10.5h-2.1l-1-3 M80.7,12.6l1.2,3.9c0.2,0.7,0.4,1.3,0.5,1.9h0c0.1-0.6,0.3-1.2,0.5-1.9l1.2-3.9h2l-2.9,7.6h-1.9
	l-2.8-7.6 M92,16.5c-1.4,0-2.7,0.3-2.7,1.4c0,0.8,0.5,1.1,1.1,1.1c0.8,0,1.3-0.5,1.5-1c0.1-0.1,0.1-0.3,0.1-0.4V16.5z M93.9,18.3
	c0,0.7,0,1.4,0.1,1.8h-1.7l-0.1-0.8h-0.1c-0.4,0.6-1.2,1-2.2,1c-1.5,0-2.4-1.1-2.4-2.3c0-1.9,1.7-2.9,4.5-2.9v-0.1
	c0-0.5-0.2-1.3-1.5-1.3c-0.8,0-1.5,0.2-2,0.6L88,13.1c0.6-0.3,1.5-0.7,2.8-0.7c2.4,0,3.1,1.5,3.1,3.2 M96.6,12.6h1.9v7.6h-1.9V12.6z
	 M97.6,11.5c-0.6,0-1.1-0.5-1.1-1c0-0.6,0.4-1,1.1-1c0.7,0,1.1,0.5,1.1,1C98.7,11,98.2,11.5,97.6,11.5 M101.3,20.2h1.9V9.1h-1.9
	V20.2z M110,16.5c-1.4,0-2.7,0.3-2.7,1.4c0,0.8,0.5,1.1,1.1,1.1c0.8,0,1.3-0.5,1.5-1c0-0.1,0-0.3,0-0.4V16.5z M111.9,18.3
	c0,0.7,0,1.4,0.1,1.8h-1.7l-0.1-0.8h0c-0.5,0.6-1.2,1-2.2,1c-1.5,0-2.4-1.1-2.4-2.3c0-1.9,1.7-2.9,4.5-2.9v-0.1
	c0-0.5-0.2-1.3-1.5-1.3c-0.8,0-1.5,0.2-2,0.6l-0.4-1.2c0.6-0.3,1.5-0.7,2.7-0.7c2.4,0,3.1,1.5,3.1,3.2 M116.5,17c0,0.2,0,0.3,0,0.5
	c0.2,0.8,0.9,1.3,1.7,1.3c1.2,0,1.9-1,1.9-2.5c0-1.3-0.6-2.4-1.9-2.4c-0.8,0-1.5,0.6-1.7,1.4c0,0.1-0.1,0.3-0.1,0.5V17z M114.6,9.1
	h1.9v4.5h0c0.5-0.7,1.3-1.2,2.4-1.2c1.9,0,3.2,1.5,3.2,3.9c0,2.7-1.7,4.1-3.4,4.1c-1,0-1.9-0.4-2.4-1.3h0l-0.1,1.1h-1.6
	c0-0.5,0.1-1.4,0.1-2.1 M124.4,20.2h1.9V9.1h-1.9V20.2z M133.8,15.6c0-0.7-0.3-1.9-1.6-1.9c-1.2,0-1.7,1.1-1.8,1.9H133.8z
	 M130.5,16.9c0,1.4,1.1,2,2.3,2c0.9,0,1.5-0.1,2.1-0.3l0.3,1.3c-0.7,0.3-1.6,0.5-2.7,0.5c-2.5,0-3.9-1.5-3.9-3.8
	c0-2.1,1.3-4.1,3.7-4.1c2.5,0,3.3,2,3.3,3.7c0,0.4,0,0.6-0.1,0.8 M145.2,19c1.1,0,1.9-1.1,1.9-2.6c0-1.2-0.5-2.6-1.8-2.6
	c-1.4,0-1.9,1.3-1.9,2.6C143.3,17.8,144,19,145.2,19L145.2,19z M145.1,20.3c-2.1,0-3.8-1.5-3.8-3.9c0-2.5,1.6-4,3.9-4
	c2.3,0,3.8,1.6,3.8,3.9C149,19.1,147,20.3,145.1,20.3 M151.3,14.8c0-0.9,0-1.6-0.1-2.3h1.7l0.1,1.1h0c0.3-0.6,1.2-1.3,2.4-1.3
	c1.3,0,2.7,0.9,2.7,3.3v4.5h-1.9v-4.3c0-1.1-0.4-1.9-1.4-1.9c-0.8,0-1.3,0.5-1.5,1.1c-0.1,0.2-0.1,0.4-0.1,0.6v4.5h-1.9 M167,10.6
	v1.9h1.8V14H167v3.3c0,0.9,0.2,1.4,1,1.4c0.3,0,0.5,0,0.8-0.1l0,1.4c-0.3,0.1-0.8,0.2-1.4,0.2c-0.7,0-1.3-0.2-1.7-0.6
	c-0.4-0.4-0.6-1.1-0.6-2.1V14H164v-1.4h1.1v-1.4 M171,9.1h1.9v4.5h0c0.2-0.4,0.6-0.7,1-0.9c0.4-0.2,0.8-0.3,1.3-0.3
	c1.3,0,2.7,0.9,2.7,3.3v4.5h-1.9v-4.3c0-1.1-0.4-1.9-1.5-1.9c-0.7,0-1.3,0.5-1.5,1.1c-0.1,0.2-0.1,0.4-0.1,0.6v4.6H171 M185.3,15.6
	c0-0.7-0.3-1.9-1.6-1.9c-1.2,0-1.7,1.1-1.8,1.9H185.3z M181.9,16.9c0,1.4,1.1,2,2.3,2c0.9,0,1.5-0.1,2.1-0.3l0.3,1.3
	c-0.7,0.3-1.6,0.5-2.7,0.5c-2.5,0-3.9-1.5-3.9-3.8c0-2.1,1.3-4.1,3.7-4.1c2.5,0,3.3,2,3.3,3.7c0,0.4,0,0.6-0.1,0.8 M47.6,30.4
	c-0.1-5.2,4.3-7.7,4.5-7.9c-2.4-3.6-6.2-4-7.6-4.1c-3.2-0.3-6.3,1.9-7.9,1.9c-1.7,0-4.1-1.9-6.8-1.8c-3.5,0.1-6.7,2.1-8.5,5.2
	c-3.7,6.3-0.9,15.7,2.6,20.8c1.8,2.5,3.8,5.3,6.5,5.2C33,49.6,34,48,37.2,48c3.1,0,4.1,1.7,6.8,1.6c2.8,0,4.6-2.5,6.3-5.1
	c2-2.9,2.8-5.7,2.9-5.9C53,38.7,47.6,36.6,47.6,30.4 M42.4,15.1c1.4-1.8,2.4-4.2,2.1-6.6c-2,0.1-4.6,1.4-6.1,3.1
	c-1.3,1.5-2.5,4-2.2,6.4C38.6,18.1,40.9,16.8,42.4,15.1 M79.3,40.3l-1.8-5.6c-0.2-0.6-0.6-1.9-1.1-4h-0.1c-0.2,0.9-0.6,2.3-1,4
	l-1.8,5.6H79.3z M85.5,49.3h-3.7l-2-6.3h-7L71,49.3h-3.6l6.9-21.4h4.3 M99.8,41.5c0-1.5-0.3-2.7-1-3.7c-0.7-1-1.7-1.5-3-1.5
	c-0.8,0-1.6,0.3-2.3,0.8c-0.7,0.6-1.1,1.3-1.4,2.2C92,39.7,92,40,92,40.3v2.6c0,1.1,0.3,2.1,1,2.8c0.7,0.8,1.6,1.2,2.7,1.2
	c1.3,0,2.3-0.5,3-1.5C99.4,44.4,99.8,43.1,99.8,41.5 M103.3,41.3c0,2.6-0.7,4.7-2.1,6.2c-1.3,1.4-2.9,2-4.7,2c-2,0-3.5-0.7-4.4-2.2
	H92v8.1h-3.4V38.9c0-1.7,0-3.3-0.1-5.1h3l0.2,2.5h0.1c1.1-1.8,2.9-2.8,5.2-2.8c1.8,0,3.3,0.7,4.6,2.2
	C102.7,37.1,103.3,39,103.3,41.3 M117.6,41.5c0-1.5-0.3-2.7-1-3.7c-0.7-1-1.7-1.5-3-1.5c-0.8,0-1.6,0.3-2.3,0.8
	c-0.7,0.6-1.1,1.3-1.3,2.2c-0.1,0.4-0.2,0.8-0.2,1v2.6c0,1.1,0.3,2.1,1,2.8c0.7,0.8,1.6,1.2,2.7,1.2c1.3,0,2.3-0.5,3-1.5
	C117.2,44.4,117.6,43.1,117.6,41.5 M121.1,41.3c0,2.6-0.7,4.7-2.1,6.2c-1.3,1.4-2.9,2-4.7,2c-2,0-3.5-0.7-4.4-2.2h-0.1v8.1h-3.4
	V38.9c0-1.7,0-3.3-0.1-5.1h3l0.2,2.5h0.1c1.1-1.8,2.9-2.8,5.2-2.8c1.8,0,3.3,0.7,4.6,2.2C120.5,37.1,121.1,39,121.1,41.3
	 M140.9,43.2c0,1.8-0.6,3.3-1.9,4.5c-1.4,1.2-3.3,1.9-5.8,1.9c-2.3,0-4.2-0.4-5.6-1.3l0.8-2.9c1.5,0.9,3.2,1.4,5,1.4
	c1.3,0,2.3-0.3,3-0.9c0.7-0.6,1.1-1.4,1.1-2.3c0-0.9-0.3-1.6-0.9-2.2s-1.6-1.1-3-1.7c-3.8-1.4-5.6-3.5-5.6-6.1c0-1.8,0.7-3.2,2-4.3
	c1.3-1.1,3.1-1.7,5.2-1.7c2,0,3.6,0.3,4.9,1l-0.9,2.8c-1.2-0.7-2.6-1-4.1-1c-1.2,0-2.2,0.3-2.8,0.9c-0.6,0.5-0.9,1.2-0.9,1.9
	c0,0.8,0.3,1.5,1,2.1c0.6,0.5,1.6,1.1,3.1,1.7c1.8,0.7,3.2,1.6,4.1,2.6C140.5,40.5,140.9,41.8,140.9,43.2 M152.3,36.4h-3.8v7.5
	c0,1.9,0.7,2.9,2,2.9c0.6,0,1.1-0.1,1.5-0.2l0.1,2.6c-0.7,0.3-1.6,0.4-2.7,0.4c-1.4,0-2.4-0.4-3.2-1.2c-0.8-0.8-1.1-2.2-1.1-4.2
	v-7.8h-2.3v-2.6h2.3V31l3.4-1v3.8h3.8 M165.8,41.5c0-1.4-0.3-2.6-0.9-3.7c-0.7-1.2-1.7-1.9-3.1-1.9c-1.4,0-2.4,0.6-3.1,1.9
	c-0.6,1-0.9,2.3-0.9,3.7c0,1.4,0.3,2.6,0.9,3.7c0.7,1.2,1.8,1.9,3.1,1.9c1.3,0,2.3-0.6,3.1-1.9C165.5,44.2,165.8,42.9,165.8,41.5
	 M169.4,41.4c0,2.4-0.7,4.3-2,5.9c-1.4,1.6-3.3,2.4-5.7,2.4c-2.3,0-4.1-0.8-5.4-2.3c-1.3-1.5-2-3.4-2-5.7c0-2.4,0.7-4.4,2.1-5.9
	c1.4-1.5,3.3-2.3,5.6-2.3c2.3,0,4.1,0.8,5.5,2.3C168.7,37.2,169.4,39.1,169.4,41.4 M180.5,36.8c-0.3-0.1-0.7-0.1-1.1-0.1
	c-1.2,0-2.1,0.5-2.8,1.4c-0.6,0.8-0.9,1.8-0.9,3.1v8.1h-3.4l0-10.6c0-1.8,0-3.4-0.1-4.9h3l0.1,3h0.1c0.4-1,0.9-1.8,1.7-2.4
	c0.8-0.6,1.6-0.8,2.5-0.8c0.3,0,0.6,0,0.9,0.1 M192.6,39.9c0-1-0.2-1.9-0.7-2.6c-0.6-1-1.5-1.4-2.7-1.4c-1.1,0-2,0.5-2.7,1.4
	c-0.6,0.7-0.9,1.6-1,2.7H192.6z M195.9,40.8c0,0.6,0,1.1-0.1,1.6h-10.3c0,1.5,0.5,2.7,1.5,3.5c0.9,0.7,2,1.1,3.4,1.1
	c1.5,0,2.9-0.2,4.2-0.7l0.5,2.4c-1.5,0.6-3.2,1-5.2,1c-2.4,0-4.3-0.7-5.6-2.1c-1.4-1.4-2.1-3.3-2.1-5.7c0-2.3,0.6-4.3,1.9-5.8
	c1.3-1.7,3.1-2.5,5.4-2.5c2.2,0,3.9,0.8,5.1,2.5C195.4,37.2,195.9,38.9,195.9,40.8"/>
</svg>
