<svg width="68" height="38" viewBox="0 0 68 38" fill="none" xmlns="http://www.w3.org/2000/svg">
    <path d="M49 37C49.2761 37 49.4993 36.7748 49.507 36.4987C49.7676 27.2321 57.232 19.7677 66.499 19.5071C66.775 19.4993 67 19.2762 67 19C67 18.7239 66.775 18.5007 66.499 18.493C57.232 18.2324 49.7676 10.768 49.507 1.50124C49.4993 1.2252 49.2761 1 49 1C48.7239 1 48.4993 1.22469 48.5066 1.50074C48.7164 9.39405 53.87 16.0551 60.9845 18.5H1.5C1.22386 18.5 1 18.7239 1 19C1 19.2762 1.22386 19.5 1.5 19.5H60.9845C53.87 21.945 48.7164 28.6059 48.5066 36.4992C48.4993 36.7753 48.7239 37 49 37Z" fill="black" stroke="black" stroke-linejoin="round"/>
</svg>
