<svg width="132" height="72" viewBox="0 0 132 72" fill="none" xmlns="http://www.w3.org/2000/svg"><path d="M96 72C96.5523 72 96.9986 71.5496 97.0141 70.9975C97.5353 52.4642 112.464 37.5353 130.998 37.0141C131.55 36.9986 132 36.5523 132 36V36C132 35.4477 131.55 35.0014 130.998 34.9859C112.464 34.4647 97.5353 19.5359 97.0141 1.00247C96.9986 0.450399 96.5523 -3.09894e-06 96 -3.14722e-06V-3.14722e-06C95.4477 -3.1955e-06 94.9986 0.449379 95.0133 1.00147C95.4328 16.7881 105.74 30.1101 119.969 35L1 35C0.447718 35 3.1955e-06 35.4477 3.14722e-06 36V36C3.09894e-06 36.5523 0.447722 37 1.00001 37L119.969 37C105.74 41.8899 95.4328 55.2119 95.0133 70.9985C94.9986 71.5506 95.4477 72 96 72V72Z" fill="black"/></svg>