<svg width="132" height="72" viewBox="0 0 132 72" fill="none" xmlns="http://www.w3.org/2000/svg"><path d="M36 0C35.4477 0 35.0014 0.450403 34.9859 1.00247C34.4647 19.5358 19.5359 34.4647 1.00247 34.9859C0.450403 35.0014 0 35.4477 0 36V36C0 36.5523 0.450403 36.9986 1.00247 37.0141C19.5359 37.5353 34.4647 52.4641 34.9859 70.9975C35.0014 71.5496 35.4477 72 36 72V72C36.5523 72 37.0014 71.5506 36.9867 70.9985C36.5672 55.2119 26.2597 41.8899 12.0312 37H131C131.552 37 132 36.5523 132 36V36C132 35.4477 131.552 35 131 35H12.0312C26.2597 30.1101 36.5672 16.7881 36.9867 1.00147C37.0014 0.449383 36.5523 0 36 0V0Z" fill="black"/></svg>