<svg width="790" height="947" viewBox="0 0 790 947" fill="none" xmlns="http://www.w3.org/2000/svg">
<mask id="mask0" mask-type="alpha" maskUnits="userSpaceOnUse" x="0" y="0" width="790" height="947">
<rect width="789.841" height="947" fill="#C4C4C4"/>
</mask>
<g mask="url(#mask0)">
<path d="M1151.06 363.608C1151.06 606.663 680.809 788.954 454.979 788.954C229.148 788.954 -414.164 466.178 -414.164 223.123C-414.164 -19.9322 179.852 -123.904 405.646 -123.904C631.44 -123.904 1151.06 120.552 1151.06 363.608Z" fill="#442682"/>
<path d="M1806.24 1218.15C1800.38 1430.69 1614.04 1583.13 1422.1 1532.79C1272.62 1493.59 1101.98 1473.04 917.381 1494.65C602.398 1531.51 475.233 1664.36 173.27 1705.39C-44.9292 1735.05 -373.801 1719.37 -806.329 1472.15C-831.32 1472.15 -964.345 1469.46 -1071.83 1353.77C-1139.79 1280.63 -1181.82 1179.62 -1181.82 1068.01V358.195C-1181.82 55.5442 -977.582 -203.159 -699.743 -249.832C-588.347 -268.555 -492.828 -268.01 -414.2 -260.264C29.359 -216.433 224.555 86.9188 584.459 -20.0115C768.335 -74.6249 805.696 -180.037 1011.34 -205.456C1098.11 -216.2 1180.1 -208.375 1254.9 -190.43C1422.82 -150.064 1566.05 -32.7793 1648.94 129.504C1778.53 383.264 1813.98 591.675 1818.1 747.146C1819.65 806.119 1816.43 846.68 1806.34 1212.2C1806.34 1214.22 1806.31 1216.17 1806.24 1218.15Z" fill="#442682"/>
<path d="M941.253 1183.04C920.529 1185.34 899.624 1186.47 878.756 1186.47C793.002 1186.51 678.749 1184.25 640.918 1081.87C639.326 1077.59 638.169 1072.14 641.207 1068.95C644.028 1066.03 648.622 1066.96 652.383 1068.21C667.067 1073.07 681.317 1079.34 696.001 1084.29C748.082 1101.88 803.31 1102.35 857.308 1098.8C881.107 1097.25 906.496 1097.56 929.571 1091.76C952.863 1085.88 974.13 1072.26 997.204 1065.25C1023.57 1057.27 1051.13 1055.48 1077.06 1045.28C1123.18 1027.18 1134.57 981.715 1170.34 950.69C1197.68 926.984 1220.9 946.058 1251.86 943.723C1275.95 941.893 1274.68 913.477 1293.56 910.597C1321.48 906.315 1350.09 912.854 1377.87 907.21C1402.53 902.189 1426.04 892.496 1450.53 886.735C1476.64 880.545 1502.39 882.842 1528.69 879.767C1573.46 874.551 1838.17 834.068 1769.53 955.284C1752.49 985.413 1731.3 1022.51 1700.3 1037.96C1667.1 1054.55 1628.91 1038.9 1594.84 1034.58C1548.07 1028.66 1525.58 1048.01 1485.36 1066.61C1464.24 1076.38 1439.71 1076.31 1417.15 1075.88C1357.87 1074.71 1299.49 1073.11 1241.81 1090.05C1182.82 1107.37 1125.67 1130.3 1068.17 1152.48C1029.14 1167.55 983.678 1178.37 941.253 1183.04Z" fill="#4B3D8C"/>
<path d="M395.992 1417.81C393.858 1414.62 391.941 1411.27 390.314 1407.65C382.791 1390.95 382.321 1371.6 383.731 1353.11C388.469 1291.76 413.388 1223.68 458.345 1181.41C507.316 1135.36 549.306 1153.69 604.715 1170.51C650.177 1184.33 696.4 1199.35 743.743 1203.29C804.541 1208.35 853.403 1165.95 906.786 1139.72C961.255 1112.98 1026.83 1133.18 1083.65 1140.26C1101.3 1090.87 1140.25 1064.32 1186.76 1053.65C1214.86 1047.23 1244.23 1043.49 1269.37 1028.47C1297.03 1011.96 1315.23 983.352 1340.98 964.395C1372.15 941.468 1403.44 939.988 1439.97 934.072C1550.5 916.243 1629.7 858.438 1726.27 950.576C1800.67 1021.54 1860.96 1125.82 1855.71 1235.71C1850.76 1339.18 1792.24 1478.3 1701.39 1524.7C1661.89 1544.86 1617.73 1551.95 1574.08 1554.48C1480.33 1559.93 1388.57 1541.9 1295.41 1538.21C1204.45 1534.59 1112.76 1543.07 1021.47 1539.41C909.788 1534.94 798.32 1523.8 687.756 1506.01C611.478 1493.83 446.373 1492.16 395.992 1417.81Z" fill="#4B287D"/>
<path d="M727.683 1015.08C652.202 1023.37 582.688 970.933 505.398 969.532C460.767 968.715 404.78 980.509 366.37 1006.01C351.469 1015.89 338.629 1028.93 324.921 1040.65C282.605 1076.81 211.066 1121.54 155.296 1099.04C135.44 1091.02 100.936 1060.04 104.806 1033.84C105.565 1028.7 108.278 1024.11 112.112 1020.91C135.331 1001.53 162.819 993.355 190.27 984.635C217.287 976.033 228.029 959.606 224.773 928.815C223.327 914.996 220.253 901.139 221.699 887.32C226.184 843.839 273.093 810.441 299.821 785.294C304.704 780.662 310.418 777.12 316.711 775.29C337.761 769.179 343.295 787.98 349.588 802.617C359.823 826.361 378.63 845.669 401.127 855.556C447.204 875.798 495.596 855.323 527.351 818.031C548.98 792.651 568.112 756.606 605.401 765.52C648.73 775.874 683.089 810.674 726.852 819.549C762.404 826.751 800.38 817.992 834.016 805.225C866.458 792.924 901.215 787.357 933.151 774.084C970.042 758.747 997.674 736.014 1037.75 729.474C1068.49 724.453 1099.27 719.548 1130.01 714.41C1162.6 708.96 1195.33 703.51 1227.45 695.414C1241.08 691.949 1271.46 688.212 1279.67 673.459C1295.33 645.355 1299.24 580.737 1346.26 568.086C1380.76 558.822 1415.92 552.905 1450.46 543.679C1455.66 542.278 1460.87 540.838 1465.72 538.347C1469.84 536.206 1473.57 533.325 1477.33 530.522C1538.49 484.667 1614.44 444.768 1689.23 435.27C1718.64 431.533 1752.06 433.752 1778.42 450.529C1812.17 472.016 1819.55 514.446 1825.98 552.944C1832.17 589.885 1837.2 633.326 1818.97 667.465C1805.37 693 1781.39 707.909 1754.52 711.218C1702.91 717.563 1653.14 693 1603.99 680.622C1569.92 672.058 1533.46 674.666 1500.73 687.979C1505.18 686.188 1516.61 695.063 1519.03 698.567C1523.26 704.6 1523.48 712.658 1519.21 718.847C1514.83 725.231 1507.56 728.54 1500.44 730.525C1482.72 735.547 1464.09 734.496 1445.86 736.247C1421.56 738.583 1395.26 747.458 1389.37 775.991C1383.33 805.186 1393.53 813.165 1361.63 823.52C1298.3 844.034 1218.98 821.768 1163.94 868.168C1143.61 885.296 1128.49 889.617 1103.46 884.245C1041.26 870.854 981.29 858.982 922.771 896.312C869.677 930.178 825.734 980.47 767.504 1004.84C753.977 1010.4 740.74 1013.64 727.683 1015.08Z" fill="#4B287D"/>
<path d="M-50.1006 117.28C-35.4527 145.541 -17.2965 171.816 1.87227 196.807C28.9979 232.191 60.8254 267.146 102.201 278.24C130.122 285.753 159.49 281.51 187.991 277.228C216.093 273.024 245.063 268.509 269.404 252.783C296.674 235.188 314.975 205.682 336.061 180.107C364.85 145.152 399.281 120.433 437.149 98.4402C441.453 95.9489 445.612 92.3287 447.059 87.2683C451.616 71.4643 430.024 66.5596 421.742 59.7864C404.67 45.773 395.629 22.6119 393.675 -0.393482C391.325 -28.2257 398.703 -54.1895 404.887 -80.815C408.504 -96.4244 405.972 -114.136 395.556 -126.164C385.176 -138.114 364.38 -144.926 351.649 -133.288C348.177 -130.096 346.079 -125.58 345.319 -120.714C342.101 -99.4996 353.349 -80.7372 356.712 -60.6512C359.244 -45.3922 358.34 -29.5492 354.687 -14.6016C347.345 15.3327 328.574 42.3864 302.606 56.2831C287.379 64.4187 269.946 68.3113 253.128 65.5864C229.981 61.8106 209.438 45.5394 196.707 24.4025C183.976 3.26556 178.478 -22.3089 178.225 -47.4942C178.044 -68.3976 181.227 -89.6513 176.851 -110.01C169.943 -141.929 145.891 -165.752 123.07 -187.434C113.594 -196.426 103.612 -205.729 91.3508 -209.116C72.6522 -214.293 53.3748 -204.639 36.7015 -194.207C-10.9673 -164.506 -55.9235 -123.4 -74.2243 -67.5023C-89.1254 -21.9586 -84.5321 29.1126 -68.7269 74.3059C-63.5911 89.1757 -57.2618 103.462 -50.1006 117.28Z" fill="#4B287D"/>
<path d="M156.311 -25.6153C156.311 27.1686 108.75 85.3633 59.707 85.3633C10.6638 85.3633 -29.6992 34.876 -29.6992 -17.9079C-29.6992 -70.6919 9.39786 -118.376 58.4049 -118.376C107.412 -118.376 156.311 -78.3603 156.311 -25.6153Z" fill="#442682"/>
<path d="M331.901 -44.5754C331.901 -12.7727 308.573 20.7428 279.024 20.7428C249.475 20.7428 216.346 -16.2761 216.346 -48.1177C216.346 -79.9593 248.788 -102.225 278.337 -102.225C307.958 -102.186 331.901 -76.3781 331.901 -44.5754Z" fill="#5B247E"/>
<path d="M371.073 183.068C371.073 223.435 340.693 256.133 303.187 256.133C265.681 256.133 226.801 214.287 226.801 173.921C226.801 133.554 262.426 96.6523 299.895 96.6523C337.365 96.6523 371.073 142.702 371.073 183.068Z" fill="#442682"/>
<path d="M540.771 -20.6726C540.771 13.4657 517.009 51.6912 485.29 51.6912C453.571 51.6912 420.008 7.15966 420.008 -26.9786C420.008 -61.1169 450.931 -87.3921 482.686 -87.3921C514.441 -87.3921 540.771 -54.8108 540.771 -20.6726Z" fill="#5B247E"/>
<path d="M654.336 22.8847C654.336 48.4982 637.011 74.1506 613.213 74.1506C589.415 74.1506 568.185 48.4592 568.185 22.8847C568.185 -2.68978 588.113 -31.2227 611.911 -31.2227C635.71 -31.2227 654.336 -2.7287 654.336 22.8847Z" fill="#4B287D"/>
<path d="M612.853 308.253C589.453 314.909 567.499 329.934 551.875 352.083C505.11 418.492 514.297 512.148 543.086 584.512C575.673 666.568 639.4 727.76 720.054 750.766C730.47 753.724 741.067 756.021 751.737 757.617C834.633 769.84 926.571 740.139 976.518 664.778C996.881 634.026 1011.96 592.803 1046.54 577.233C1067.12 567.968 1092.33 571.277 1109.72 586.341C1127.12 601.367 1135.55 627.759 1129.65 650.92C1126.18 664.583 1116.27 677.117 1103.9 682.294C1092.15 687.238 1071.89 683.968 1068.93 667.97C1067.77 661.78 1070.59 655.513 1073.88 650.258C1081.11 638.814 1089.14 625.696 1081.58 611.799C1077.28 603.897 1068.53 599.654 1059.99 599.382C1020.17 598.214 1000.53 649.168 1002.31 685.486C1005.42 749.909 1067.19 783.23 1120.79 786.967C1169.4 790.392 1217.14 767.893 1247.3 726.593C1298.81 656.136 1290.05 535.27 1224.7 477.893C1196.96 453.525 1159.6 442.82 1123.83 446.324C1083.32 450.255 1048.93 474.195 1017.71 500.704C1008.06 508.917 998.544 517.325 988.887 525.539C946.571 561.506 899.264 589.728 844.579 595.333C794.487 600.472 738.355 578.011 708.806 532.701C694.086 510.163 687.829 479.917 697.485 454.42C711.229 418.063 744.286 394.902 720.922 353.134C696.69 309.887 652.638 296.925 612.853 308.253Z" fill="#4B3D8C"/>
<path d="M79.9606 -17.8701C79.9606 -5.45262 69.9421 8.13263 58.4046 8.13263C46.8672 8.13263 33.5938 -8.95598 33.5938 -21.3734C33.5938 -33.7909 48.1693 -42.4325 59.7067 -42.4325C71.2442 -42.4715 79.9606 -30.2875 79.9606 -17.8701Z" fill="#4B3D8C"/>
<path d="M508.145 -21.3718C508.145 -7.00804 498.633 13.7396 485.287 13.7396C471.941 13.7396 456.57 -7.04697 456.57 -21.3718C456.57 -35.6967 470.639 -47.3745 483.985 -47.3745C497.331 -47.3745 508.145 -35.7356 508.145 -21.3718Z" fill="#4B3D8C"/>
<path d="M335.156 190.773C335.156 205.137 321.087 223.082 307.741 223.082C294.395 223.082 282.279 202.295 282.279 187.97C282.279 173.607 293.093 161.968 306.439 161.968C319.785 161.968 335.156 176.409 335.156 190.773Z" fill="#4B3D8C"/>
<path d="M-1195.49 728.192C-1195.49 728.192 -1149.81 671.982 -1105.4 667.778C-1060.98 663.574 -1067.53 618.614 -1029.7 614.371C-991.867 610.128 -997.075 555.359 -948.755 560.965C-900.472 566.57 -886.077 598.918 -861.302 618.575C-836.491 638.233 -799.962 643.878 -780.359 639.635C-760.792 635.431 -768.605 638.233 -745.096 624.181C-721.587 610.129 -707.228 594.675 -694.172 591.872C-681.115 589.069 -669.361 553.958 -639.342 593.273C-620.173 618.381 -635.038 651.624 -620.064 676.692C-602.921 705.381 -555.071 699.269 -528.38 698.063C-510.766 697.284 -492.321 697.323 -475.322 703.006C-461.361 707.678 -451.415 721.847 -437.816 724.805C-431.885 726.09 -426.026 722.431 -420.058 723.676C-406.784 726.44 -396.513 741.504 -388.701 752.053C-375.427 770.037 -362.732 797.325 -343.455 808.847C-320.633 822.471 -291.048 801.139 -272.711 786.97C-252.494 771.322 -231.227 748.2 -205.62 743.996C-197.266 742.633 -186.886 743.879 -177.808 743.139C-149.886 740.843 -133.394 725.272 -104.134 732.396C-85.6888 736.872 -67.6773 732.824 -49.702 741.115C-35.9584 747.46 -25.1805 758.671 -12.124 765.755C-2.32258 771.049 8.52776 774.047 18.6908 778.445C38.3298 786.97 56.3412 799.076 55.5094 824.612C54.4605 856.609 38.9808 886.66 28.3475 915.855C23.5372 929.051 21.0417 942.753 10.3722 952.329C-12.5942 972.96 -46.4831 957.117 -72.0898 970.468C-87.4248 978.487 -99.6494 991.411 -113.899 1001.18C-126.413 1009.74 -142.074 1015.47 -155.999 1010.1C-167.825 1005.54 -175.927 994.058 -184.39 984.054C-194.3 972.259 -205.801 961.632 -219.436 955.521C-248.479 942.519 -282.187 952.017 -310 967.86C-336.764 983.08 -360.779 1003.13 -387.796 1017.8C-421.36 1036.02 -459.734 1048.83 -497.022 1054.24C-545.74 1061.28 -585.271 1053.54 -625.164 1021.73C-634.893 1013.99 -644.586 1005.58 -656.16 1001.69C-680.175 993.59 -706.143 1011.11 -728.314 994.875C-741.696 985.105 -745.53 966.498 -758.116 955.871C-776.381 940.417 -784.229 920.76 -823.399 954.47C-862.568 988.18 -829.909 999.429 -906.946 1021.93C-983.982 1044.43 -1051.87 1047.23 -1077.95 988.219C-1104.02 929.207 -1071.44 937.654 -1136.68 895.496C-1201.96 853.339 -1201.96 877.24 -1207.17 829.478C-1212.38 781.715 -1241.1 788.722 -1224.14 760.617C-1207.21 732.396 -1195.49 728.192 -1195.49 728.192Z" fill="#4B3D8C"/>
<path d="M138.117 723.245C79.1638 750.999 9.39667 753.062 -43.4441 710.516C-68.9061 690.04 -89.6302 662.675 -103.989 632.235C-116.033 606.738 -131.476 566.995 -108.654 542.938C-100.77 534.647 -89.3047 531.183 -78.3097 531.377C-58.7792 531.689 -38.4893 539.007 -22.9734 551.775C-3.15357 568.046 7.19043 594.555 28.5293 610.32C45.5642 622.893 85.0591 634.921 93.233 604.442C97.7539 587.587 88.0972 571.082 82.4189 555.979C75.4024 537.294 73.0515 519.777 78.9107 500.197C83.4316 485.016 85.6378 459.208 99.5623 450.722C118.261 439.278 145.423 436.903 166.364 432.699C194.719 427.055 222.677 419.464 250.453 411.212C290.527 399.262 330.239 385.871 370.494 374.583C389.771 369.172 408.289 363.605 428.108 363.605C450.098 363.566 471.871 365.357 493.789 367.109C496.465 367.303 498.49 383.185 498.635 385.015C500.154 401.208 494.548 416.895 485.76 429.819C456.355 473.144 398.415 490.816 356.497 516.507C327.382 534.336 299.28 555.628 277.977 583.811C255.047 614.173 233.419 645.587 207.342 673.224C187.992 693.816 164.085 711.022 138.117 723.245Z" fill="#4B287D"/>
<path d="M46.5381 948.706C50.3357 952.287 56.014 953.571 61.2583 954C101.766 957.542 142.889 929.632 157.392 888.759C167.446 860.421 165.674 827.684 179.671 801.331C191.353 779.377 212.547 765.091 234.284 755.476C256.057 745.861 279.132 739.944 300.615 729.668C310.019 725.152 319.169 719.82 329.188 717.173C339.17 714.526 350.49 714.954 358.881 721.377C372.155 731.536 373.782 752.245 384.09 765.791C393.494 778.131 409.588 783.114 424.272 780.895C438.956 778.676 452.266 770.112 463.297 759.447C482.321 741.034 495.631 716.628 504.926 691.209C508.977 680.115 530.207 624.139 514.546 617.561C504.419 613.318 489.084 633.014 482.321 638.659C464.744 653.373 435.376 674.899 414.326 654.424C398.231 638.736 404.814 610.126 397.183 588.249C390.6 569.37 371.938 556.213 353.239 557.264C336.204 558.198 321.231 569.487 308.861 582.099C284.991 606.428 267.269 636.751 247.449 665.012C227.629 693.272 204.518 720.442 174.354 734.534C156.849 742.708 137.174 746.406 122.092 758.941C103.285 774.55 95.075 803.433 102.525 827.684C107.083 842.515 116.956 856.84 113.918 872.138C110.808 887.864 95.4367 896.7 81.4398 902.306C67.443 907.95 51.6739 913.711 44.6936 927.958C41.981 933.447 41.0045 940.492 44.0787 945.786C44.8382 946.876 45.6339 947.849 46.5381 948.706Z" fill="#4B3D8C"/>
<path d="M816.077 1032.17C873.366 996.703 927.98 941.817 991.164 920.096C1019.52 910.365 1048.27 911.338 1073.95 928.582C1087.73 937.847 1102.85 948.279 1098.73 965.718C1090.44 1000.79 1046.68 1004.57 1019.45 1007.56C979.084 1012.04 947.582 1016.4 911.343 1038.67C891.921 1050.62 869.605 1061.55 847.073 1063.93C828.591 1065.88 781.139 1053.73 815.715 1032.36C815.86 1032.28 815.969 1032.24 816.077 1032.17Z" fill="#4B3D8C"/>
<path d="M1003.93 -114.447C998.651 -112.696 993.841 -111.489 990.225 -110.788C946.932 -102.341 907.22 -88.328 879.841 -48.9347C861.902 -23.1655 849.967 8.75393 842.769 39.856C838.393 58.813 831.087 76.1741 810.291 74.8895C799.007 74.2278 788.12 70.0238 777.053 67.766C746.238 61.46 714.519 69.5566 684.464 79.3271C641.352 93.3795 599.362 104.396 554.08 105.797C538.456 106.303 518.744 104.512 509.232 89.0586C506.773 85.0493 505.29 79.7164 507.315 75.4345C508.943 71.9311 512.559 69.907 516.176 69.362C531.33 67.1043 546.738 77.5365 560.662 82.2466C576.287 87.5016 589.922 83.8036 605.836 83.064C620.013 82.4023 634.734 82.5191 647.79 75.5902C681.968 57.4117 688.298 -12.5776 657.411 -37.6072C644.282 -48.2729 626.849 -54.6958 609.922 -51.7763C594.768 -49.1682 584.027 -32.1186 568.185 -32.0407C564.134 -32.0018 559.83 -33.7924 557.66 -37.4904C554.731 -42.4729 556.431 -48.9736 557.914 -54.6179C560.301 -63.7656 562.001 -73.1079 562.941 -82.528C563.737 -90.5468 564.026 -98.6434 565.798 -106.468C571.91 -133.521 598.458 -137.57 620.013 -142.513C679.075 -156.099 741.03 -150.766 801.357 -155.982C859.659 -161.042 917.13 -175.133 975.504 -180.856C994.528 -182.724 1033.95 -180.817 1041.91 -156.332C1048.96 -134.611 1023.39 -120.909 1003.93 -114.447Z" fill="#4B287D"/>
<path d="M-102.649 441.418C-110.425 437.525 -118.274 433.788 -126.267 430.402C-157.19 417.206 -195.347 406.968 -228.042 418.841C-259.4 430.207 -282.402 459.013 -316.87 465.669C-340.415 470.223 -388.409 444.688 -376.763 411.834C-369.06 390.113 -335.496 384.235 -317.774 376.295C-296.544 366.758 -277.845 353.406 -271.877 328.026C-268.514 313.662 -268.948 298.598 -270.865 283.923C-271.986 275.398 -273.613 266.834 -272.926 258.231C-272.275 249.629 -268.875 240.792 -262.148 236.16C-257.591 233.046 -252.058 232.151 -246.705 231.567C-225.185 229.231 -186.594 247.643 -168.185 231.255C-164.496 227.947 -162.217 223.159 -160.698 218.254C-157.19 207.004 -157.082 194.859 -154.405 183.376C-147.678 154.454 -114.223 135.847 -88.327 143.983C-68.6519 150.172 -54.5104 168.701 -44.1665 187.775C-4.49067 260.839 49.616 312.027 130.197 322.343C195.154 330.634 260.871 313.468 317.979 280.108C358.161 256.635 391.472 222.536 426.663 191.668C461.962 160.682 497.66 139.156 541.314 123.975C626.633 94.352 720.199 92.3279 806.422 118.759C940.64 159.865 1091.35 342.896 976.988 486.767C948.344 522.813 907.981 547.998 864.254 554.888C817.091 562.323 740.416 551.423 726.022 492.645C718.427 461.66 736.438 437.642 747.397 410.9C758.464 383.885 758.138 351.693 745.154 325.496C711.989 258.387 630.105 267.924 574.769 292.058C530.391 311.443 497.117 351.343 466.809 389.802C437.224 427.366 403.733 458.662 363.514 482.797C255.409 547.726 120.541 549.516 7.08289 499.691C-30.7484 483.108 -65.7224 460.025 -102.649 441.418Z" fill="#4B3D8C"/>
<path d="M18.9078 537.335C-12.0516 519.234 -48.8702 491.324 -62.433 454.811C-65.8328 445.664 -67.5688 434.998 -63.6989 426.084C-59.9375 417.442 -51.402 411.954 -42.6495 410.552C-24.855 407.75 -6.3734 418.883 8.88931 427.369C101.84 478.868 216.672 513.084 310.708 443.289C350.854 413.472 374.724 366.021 412.845 333.868C434.979 315.222 462.069 301.793 490.207 302.143C525.868 302.571 560.662 346.441 531.004 380.034C524.132 387.819 515.38 393.347 506.736 398.758C458.778 428.887 410.566 458.509 363.657 490.507C325.826 516.315 288.428 544.303 245.642 560.029C171.246 588.017 87.7347 577.585 18.9078 537.335Z" fill="#442682"/>
<path d="M782.622 574.197C784.467 576.844 754.809 582.06 752.603 582.216C739.944 583.189 727.177 582.527 714.663 580.27C660.376 570.538 616.721 530.989 609.271 470.42C604.533 431.961 616.36 370.107 658.278 360.92C678.459 356.522 699.437 374.584 700.956 396.421C701.788 408.605 697.23 420.477 691.95 431.299C685.187 445.118 678.134 458.392 675.132 473.884C668.984 505.804 688.804 529.588 714.989 540.643C722.693 543.913 730.288 547.066 737.702 551.153C745.55 555.474 753.724 559.094 761.79 562.87C768.481 565.945 778.065 567.696 782.622 574.197Z" fill="#442682"/>
<path d="M625.403 160.141C683.561 146.244 742.622 148.268 801.431 171.897C858.648 194.863 911.778 239.706 937.855 300.236C964.257 361.545 957.421 462.481 892.681 493.466C851.884 512.968 803.746 498.448 816.223 443.368C828.882 387.548 848.232 308.995 808.809 259.948C755.281 193.384 653.216 193.15 580.302 211.368C552.128 218.413 524.64 227.289 495.96 231.765C492.524 232.31 488.943 232.816 485.579 231.804C465.868 226.082 498.817 212.107 503.048 209.966C521.964 200.468 540.807 190.815 560.157 182.368C581.713 172.87 603.486 165.357 625.403 160.141Z" fill="#442682"/>
<path d="M352.806 438.773C352.806 479.139 322.425 511.837 284.919 511.837C247.413 511.837 208.533 469.992 208.533 429.625C208.533 389.259 244.158 352.357 281.628 352.357C319.134 352.357 352.806 398.406 352.806 438.773Z" fill="#442682"/>
<path d="M316.893 446.481C316.893 460.844 302.823 478.789 289.478 478.789C276.132 478.789 264.016 458.003 264.016 443.678C264.016 429.353 274.83 417.675 288.176 417.675C301.521 417.675 316.893 432.117 316.893 446.481Z" fill="#4B3D8C"/>
</g>
</svg>
