<svg xmlns="http://www.w3.org/2000/svg" viewBox="0 0 512 512">
<path fill="#4B287D" d="M241.8,120l-1.1-24.3l3.2-0.1l1,21.5l12-0.5l0.1,2.9L241.8,120z M262.2,107.4c0.5-4,1.9-7,4.3-9.1
	s5.3-2.9,8.7-2.5c2.2,0.3,4.2,1,5.9,2.3s2.9,2.9,3.6,4.9c0.7,2,1,4.2,0.7,6.7c-0.3,2.5-1,4.6-2.2,6.4c-1.2,1.8-2.8,3.1-4.7,3.9
	c-1.9,0.8-3.9,1.1-6,0.8c-2.3-0.3-4.3-1-5.9-2.3c-1.7-1.3-2.9-3-3.6-5S262,109.5,262.2,107.4z M265.5,107.8
	c-0.3,2.9,0.2,5.3,1.6,7.2s3.3,2.9,5.6,3.2c2.4,0.3,4.5-0.4,6.2-1.9c1.7-1.5,2.8-3.8,3.1-6.9c0.2-2,0.1-3.7-0.4-5.3
	c-0.5-1.5-1.3-2.8-2.5-3.7c-1.2-1-2.6-1.5-4.2-1.7c-2.3-0.3-4.3,0.3-6.1,1.7C267,101.7,265.9,104.2,265.5,107.8z M282.7,121.5
	l15.8-20.7l3.3,1l2.7,26.2l-3.5-1l-0.6-7.9l-9.8-2.9l-4.6,6.3L282.7,121.5z M292.3,113.9l7.9,2.3l-0.5-7.2c-0.2-2.2-0.2-4-0.2-5.3
	c-0.7,1.4-1.6,2.8-2.6,4.1L292.3,113.9z M307.8,129.3l10.8-21.8l7.5,3.7c1.7,0.8,2.9,1.6,3.7,2.2c1.1,0.9,1.9,2,2.4,3.1
	c0.7,1.5,0.9,3.2,0.7,5s-0.7,3.7-1.7,5.6c-0.8,1.7-1.7,3-2.8,4.1c-1,1.1-2,1.9-3.1,2.4c-1,0.5-2,0.9-3,1s-2,0.1-3.1-0.2
	c-1.1-0.3-2.4-0.7-3.7-1.4L307.8,129.3z M311.9,128.1l4.7,2.3c1.4,0.7,2.6,1.1,3.6,1.3c1,0.1,1.8,0.1,2.5-0.2c1-0.3,2-1,3-2
	s1.8-2.3,2.7-3.9c1.1-2.3,1.6-4.2,1.5-5.8c-0.1-1.6-0.6-2.9-1.5-3.8c-0.6-0.7-1.8-1.4-3.5-2.3l-4.6-2.3L311.9,128.1z M329.3,140.8
	l13.5-20.3l2.7,1.8l-13.5,20.3L329.3,140.8z M337.7,146.2l15.9-18.4l2.5,2.2l-2.8,22.8l12.5-14.5l2.3,2l-15.9,18.4l-2.5-2.2
	l2.8-22.8l-12.5,14.5L337.7,146.2z M370,164.7l2.2-1.8l6.6,8l-7,5.7c-2-0.4-3.8-1.1-5.3-2s-2.9-2-4-3.4c-1.5-1.8-2.5-3.9-3-6
	s-0.2-4.2,0.6-6.2c0.9-2,2.2-3.8,4.1-5.3c1.8-1.5,3.9-2.5,6.1-3.1c2.2-0.5,4.3-0.4,6.2,0.4s3.7,2.1,5.2,4c1.1,1.4,1.9,2.8,2.4,4.2
	c0.5,1.5,0.6,2.8,0.3,4.1c-0.3,1.3-0.9,2.6-1.9,4l-2.5-1.7c0.7-1.1,1.2-2,1.4-2.9c0.2-0.9,0.1-1.8-0.2-2.9c-0.3-1-0.9-2-1.6-3
	c-0.9-1.1-1.9-2-2.9-2.5c-1-0.5-2-0.8-3-0.9s-1.9,0.1-2.8,0.3c-1.6,0.5-3,1.3-4.4,2.4c-1.7,1.4-2.8,2.8-3.5,4.3
	c-0.7,1.5-0.8,3-0.4,4.6c0.4,1.6,1,3,2.1,4.2c0.9,1.1,2,2,3.2,2.6c1.3,0.7,2.3,1.1,3.2,1.2l3.5-2.9L370,164.7z M391.1,234.6
	l24.2-2.4l0.3,3.2l-21.4,2.1l1.2,11.9l-2.9,0.3L391.1,234.6z M404.7,254.3c4,0.2,7.1,1.5,9.3,3.8c2.2,2.3,3.1,5.2,2.9,8.6
	c-0.1,2.2-0.8,4.2-2,6c-1.2,1.7-2.8,3-4.7,3.9c-2,0.8-4.2,1.2-6.6,1c-2.5-0.1-4.6-0.8-6.5-1.9c-1.9-1.1-3.3-2.6-4.2-4.5
	c-0.9-1.9-1.3-3.9-1.1-6c0.1-2.3,0.8-4.3,2-6c1.2-1.7,2.8-3,4.8-3.8C400.5,254.5,402.6,254.2,404.7,254.3z M404.5,257.6
	c-2.9-0.2-5.3,0.5-7.1,2c-1.8,1.5-2.7,3.4-2.9,5.8c-0.1,2.4,0.6,4.5,2.2,6.1c1.6,1.7,4,2.6,7.1,2.8c2,0.1,3.7-0.1,5.2-0.7
	c1.5-0.6,2.7-1.5,3.6-2.7c0.9-1.2,1.4-2.7,1.5-4.3c0.1-2.3-0.5-4.3-2-6C410.7,258.8,408.1,257.8,404.5,257.6z M391.7,275.5
	l21.5,14.7l-0.8,3.4l-26,4.1l0.8-3.6l7.8-1.1l2.3-9.9l-6.6-4.3L391.7,275.5z M399.8,284.7l-1.9,8l7.1-0.9c2.2-0.3,3.9-0.5,5.3-0.5
	c-1.4-0.7-2.9-1.4-4.2-2.3L399.8,284.7z M385.3,301l22.4,9.6l-3.3,7.7c-0.7,1.7-1.4,3-2,3.8c-0.8,1.2-1.8,2-3,2.6
	c-1.5,0.8-3.2,1.1-5,1c-1.8-0.1-3.7-0.6-5.7-1.4c-1.7-0.7-3.1-1.6-4.3-2.5c-1.1-1-2-1.9-2.6-2.9c-0.6-1-1-2-1.2-2.9
	c-0.2-1-0.2-2,0-3.2s0.6-2.4,1.2-3.8L385.3,301z M386.6,305.1l-2.1,4.8c-0.6,1.5-1,2.7-1.1,3.6c-0.1,1,0,1.8,0.3,2.5
	c0.4,1,1.1,2,2.1,2.9c1,0.9,2.4,1.7,4.1,2.4c2.3,1,4.3,1.4,5.9,1.2c1.6-0.2,2.8-0.8,3.7-1.7c0.6-0.7,1.3-1.9,2.1-3.6l2-4.7
	L386.6,305.1z M375,323l21,12.4l-1.6,2.8l-21-12.4L375,323z M370,331.8l19.3,14.9l-2,2.6l-22.9-1.6l15.1,11.7l-1.9,2.4L358.2,347
	l2-2.6l23,1.6l-15.1-11.7L370,331.8z M353.2,365l1.9,2.1l-7.6,7l-6.1-6.7c0.3-2,0.9-3.8,1.7-5.4c0.8-1.6,1.9-3,3.2-4.2
	c1.8-1.6,3.7-2.7,5.8-3.3c2.1-0.6,4.2-0.5,6.3,0.3c2,0.8,3.9,2,5.5,3.8c1.6,1.7,2.7,3.7,3.4,5.9c0.7,2.2,0.6,4.3-0.1,6.3
	c-0.7,2-1.9,3.8-3.7,5.4c-1.3,1.2-2.7,2.1-4.1,2.6c-1.4,0.5-2.8,0.7-4.1,0.5c-1.3-0.2-2.6-0.8-4.1-1.7l1.6-2.5
	c1.1,0.7,2.1,1.1,3,1.2c0.9,0.2,1.8,0.1,2.9-0.3s2-1,2.9-1.8c1.1-1,1.9-2,2.4-3.1c0.5-1.1,0.7-2.1,0.7-3.1c0-1-0.2-1.9-0.5-2.8
	c-0.6-1.5-1.4-2.9-2.6-4.2c-1.5-1.6-3-2.7-4.5-3.3c-1.5-0.6-3.1-0.6-4.6-0.2c-1.5,0.4-2.9,1.2-4.1,2.3c-1,0.9-1.9,2.1-2.5,3.4
	c-0.6,1.3-1,2.4-1.1,3.3l3.1,3.3L353.2,365z M284.5,389.8l3.7,24.1l-3.2,0.5l-3.2-21.2l-11.9,1.8l-0.4-2.8L284.5,389.8z
	 M265.5,404.5c-0.1,4-1.2,7.2-3.4,9.4s-5,3.3-8.5,3.3c-2.2,0-4.3-0.6-6.1-1.7c-1.8-1.1-3.1-2.6-4.1-4.6c-0.9-1.9-1.4-4.1-1.3-6.6
	c0-2.5,0.6-4.7,1.6-6.6c1-1.9,2.5-3.4,4.3-4.4c1.8-1,3.8-1.4,5.9-1.4c2.3,0,4.3,0.6,6.1,1.8c1.8,1.1,3.1,2.7,4,4.6
	S265.5,402.4,265.5,404.5z M262.2,404.4c0-2.9-0.7-5.3-2.3-7c-1.5-1.7-3.5-2.6-5.9-2.6c-2.4,0-4.4,0.8-6,2.5
	c-1.6,1.7-2.4,4.1-2.5,7.2c0,2,0.3,3.7,0.9,5.2c0.6,1.5,1.6,2.7,2.9,3.5c1.3,0.8,2.7,1.3,4.3,1.3c2.3,0,4.3-0.7,5.9-2.3
	C261.3,410.7,262.1,408.1,262.2,404.4z M243.7,392.5l-13.5,22.3l-3.4-0.6l-5.5-25.7l3.6,0.7l1.5,7.8l10,1.8l3.9-6.8L243.7,392.5z
	 M235,401.1l-8.1-1.5l1.3,7.1c0.4,2.2,0.7,3.9,0.8,5.3c0.6-1.5,1.3-2.9,2.1-4.3L235,401.1z M217.9,387.5l-8.4,22.9l-7.9-2.9
	c-1.8-0.7-3.1-1.3-3.9-1.8c-1.2-0.8-2.1-1.7-2.7-2.9c-0.8-1.5-1.3-3.1-1.3-4.9c0-1.8,0.4-3.7,1.1-5.8c0.6-1.7,1.4-3.2,2.3-4.4
	c0.9-1.2,1.8-2.1,2.8-2.8c1-0.6,1.9-1.1,2.8-1.3c0.9-0.2,2-0.3,3.1-0.1c1.2,0.1,2.4,0.5,3.8,1L217.9,387.5z M213.9,389.1l-4.9-1.8
	c-1.5-0.6-2.7-0.8-3.7-0.9c-1,0-1.8,0.1-2.5,0.4c-1,0.5-1.9,1.2-2.7,2.3c-0.8,1.1-1.6,2.5-2.2,4.2c-0.9,2.4-1.2,4.4-0.9,5.9
	c0.3,1.6,0.9,2.8,1.9,3.6c0.7,0.6,1.9,1.2,3.7,1.9l4.8,1.8L213.9,389.1z M195.3,378.3l-11.2,21.6l-2.9-1.5l11.2-21.6L195.3,378.3z
	 M186.4,373.8l-13.9,20l-2.7-1.9l0.4-23l-10.9,15.7l-2.5-1.8l13.9-20l2.7,1.9l-0.4,23l10.9-15.7L186.4,373.8z M152.3,358.9l-2,2
	l-7.4-7.2l6.3-6.4c2,0.2,3.8,0.7,5.5,1.4c1.6,0.7,3.1,1.7,4.4,3c1.7,1.7,2.9,3.6,3.6,5.7c0.7,2.1,0.7,4.2,0,6.3
	c-0.6,2.1-1.8,4-3.5,5.7c-1.7,1.7-3.6,2.9-5.7,3.7c-2.1,0.8-4.2,0.9-6.3,0.3c-2-0.6-3.9-1.7-5.6-3.4c-1.3-1.2-2.2-2.6-2.8-4
	c-0.6-1.4-0.9-2.8-0.7-4c0.1-1.3,0.6-2.7,1.5-4.1l2.6,1.5c-0.6,1.1-1,2.2-1.1,3c-0.1,0.9,0,1.8,0.5,2.8s1.1,1.9,1.9,2.8
	c1.1,1,2.1,1.8,3.2,2.2c1.1,0.4,2.1,0.6,3.1,0.6c1-0.1,1.9-0.3,2.8-0.6c1.5-0.6,2.9-1.6,4.1-2.8c1.5-1.5,2.5-3.1,3-4.7
	c0.5-1.6,0.5-3.1,0-4.6c-0.5-1.5-1.4-2.8-2.5-4c-1-1-2.2-1.7-3.5-2.3c-1.3-0.5-2.4-0.8-3.4-0.9l-3.2,3.2L152.3,358.9z M123.9,291.6
	l-23.8,4.9l-0.7-3.2l21-4.4l-2.4-11.7l2.8-0.6L123.9,291.6z M108.3,273.4c-4,0.2-7.2-0.8-9.6-2.8c-2.4-2.1-3.7-4.8-3.8-8.2
	c-0.1-2.2,0.3-4.3,1.3-6.1c1-1.9,2.4-3.3,4.3-4.3c1.9-1,4-1.6,6.5-1.7c2.5-0.1,4.7,0.3,6.7,1.2c2,0.9,3.5,2.3,4.6,4
	c1.1,1.8,1.7,3.7,1.8,5.8c0.1,2.3-0.4,4.4-1.4,6.2c-1,1.9-2.5,3.3-4.3,4.3C112.4,272.8,110.4,273.3,108.3,273.4z M108.2,270.1
	c2.9-0.1,5.2-1,6.8-2.7s2.4-3.7,2.3-6c-0.1-2.4-1.1-4.4-2.8-5.9s-4.2-2.2-7.4-2c-2,0.1-3.7,0.5-5.1,1.2c-1.4,0.7-2.5,1.8-3.3,3.1
	c-0.8,1.3-1.1,2.8-1,4.4c0.1,2.3,1,4.2,2.6,5.8C101.9,269.6,104.5,270.3,108.2,270.1z M119,251l-23-12.3l0.4-3.4l25.4-6.8l-0.5,3.6
	l-7.7,1.9l-1.3,10.1l7,3.6L119,251z M110,242.7l1-8.2l-7,1.7c-2.1,0.5-3.9,0.9-5.2,1.1c1.5,0.5,3,1.1,4.5,1.9L110,242.7z M122.7,225
	l-23.3-7.2l2.5-8c0.6-1.8,1.1-3.2,1.6-4c0.7-1.2,1.6-2.2,2.7-2.9c1.4-0.9,3-1.4,4.8-1.5s3.7,0.2,5.8,0.8c1.8,0.5,3.3,1.2,4.5,2.1
	c1.2,0.8,2.2,1.7,2.9,2.6c0.7,0.9,1.2,1.8,1.5,2.8c0.3,0.9,0.4,2,0.3,3.1c-0.1,1.2-0.3,2.5-0.8,3.9L122.7,225z M120.9,221l1.5-5
	c0.5-1.5,0.7-2.8,0.7-3.7c0-1-0.2-1.8-0.6-2.5c-0.5-1-1.3-1.8-2.4-2.6c-1.1-0.8-2.5-1.5-4.3-2c-2.4-0.8-4.4-0.9-6-0.5
	c-1.6,0.4-2.7,1.1-3.5,2.1c-0.6,0.7-1.1,2-1.7,3.8l-1.5,4.9L120.9,221z M130.6,201.9l-22.2-10.1l1.3-2.9l22.2,10.1L130.6,201.9z
	 M134.6,192.7l-20.7-12.8l1.7-2.8l23-0.9l-16.3-10l1.6-2.6l20.7,12.8l-1.7,2.8l-23,0.8l16.3,10L134.6,192.7z M147.7,157.9l-2.1-1.9
	l6.8-7.7l6.8,6c-0.1,2-0.5,3.9-1.1,5.6c-0.6,1.7-1.5,3.2-2.7,4.5c-1.6,1.8-3.4,3.1-5.5,3.9c-2.1,0.8-4.1,0.9-6.3,0.4
	c-2.1-0.5-4.1-1.6-5.9-3.2c-1.8-1.6-3.1-3.4-4-5.5s-1.1-4.2-0.6-6.2s1.5-4,3.1-5.8c1.2-1.3,2.4-2.3,3.8-3c1.4-0.7,2.7-1,4-0.9
	c1.3,0.1,2.7,0.5,4.2,1.3l-1.3,2.7c-1.2-0.5-2.2-0.9-3.1-0.9c-0.9-0.1-1.8,0.1-2.8,0.6c-1,0.5-1.9,1.2-2.7,2.1c-1,1.1-1.7,2.2-2,3.3
	c-0.4,1.1-0.5,2.1-0.4,3.1c0.1,1,0.4,1.9,0.8,2.7c0.7,1.5,1.7,2.8,3.1,3.9c1.6,1.4,3.2,2.4,4.8,2.8c1.6,0.4,3.1,0.3,4.6-0.3
	c1.5-0.6,2.7-1.5,3.8-2.7c0.9-1,1.6-2.2,2.1-3.6c0.5-1.4,0.7-2.5,0.7-3.4l-3.4-3L147.7,157.9z"/>
</svg>
