<svg xmlns="http://www.w3.org/2000/svg" viewBox="0 0 832.675 914.542"><defs><style>.cls-1{fill:#5f1e68}.cls-2{fill:#22183f}.cls-3{fill:#af5671}.cls-4{fill:#b27674}.cls-5{fill:none}.cls-6{fill:#ae357d}</style></defs><g id="Layer_2" data-name="Layer 2"><g id="Слой_1" data-name="Слой 1"><path class="cls-1" d="M747.429 813.542h16.427l-23.332-30.182 6.905 30.182z"/><path class="cls-2" d="M0 0h832.675v914.542H0z"/><path class="cls-3" d="M832.675 609.912V205.208L545.602 538.37l287.073 71.542z"/><path class="cls-4" d="M764.332 914.542h68.343V429.905L681.482 683.333l82.85 231.209z"/><path class="cls-1" d="M71.113 914.542h496.153L221.725 432.049 71.113 914.542z"/><path class="cls-5" d="M0 914.542h71.113l150.612-482.493 345.541 482.493h265.409V0H0v914.542z"/><path class="cls-5" d="M0 914.542h507.986l-51.729-233.07 208.472 98.652-8.883 134.418h176.829V0H0v914.542z"/><path class="cls-4" d="M456.257 681.472l51.729 233.07h147.86l8.883-134.418-208.472-98.652z"/><path class="cls-5" d="M584.691 756.149l94.929-81.899 153.055 27.871V0H0v914.542h610.98l-26.289-158.393z"/><path class="cls-5" d="M783.857 884.36l23.332 30.182h25.486V0H0v914.542h790.763l-6.906-30.182z"/><path class="cls-5" d="M0 529.278l115.627 130.08-93.392 255.184H832.675V0H0v529.278z"/><path class="cls-3" d="M0 529.278v385.264h22.235l93.392-255.184L0 529.278z"/><path class="cls-5" d="M0 256.307l98.875-56.928 81.9 282.927-63.286 156.354L0 506.279V914.542H832.675V0H0v256.307z"/><path class="cls-1" d="M180.775 482.306l-81.9-282.927L0 256.307v249.972L117.489 638.66l63.286-156.354z"/><path class="cls-5" d="M100.736 175.181L0 227.648v686.894H832.675V0H206.738L100.736 175.181z"/><path class="cls-1" d="M206.738 0H0v227.648l100.736-52.467L206.738 0z"/><path class="cls-5" d="M512.098 350.372L119.35 175.404 225.299 0H0v914.542H832.675V0H337.633l174.465 350.372z"/><path class="cls-3" d="M512.098 350.372L337.633 0H225.299L119.35 175.404l392.748 174.968z"/><path class="cls-5" d="M409.723 78.39L371.879 0H0v914.542H832.675V0H552.816L409.723 78.39z"/><path class="cls-1" d="M552.816 0H371.879l37.844 78.39L552.816 0z"/><path class="cls-5" d="M666.591 368.986l-27.921-40.95L476.732 223.8 407.861 95.366 583.535 0H0v914.542H832.675V182.771L666.591 368.986z"/><path class="cls-3" d="M476.732 223.8L638.67 328.036l27.921 40.95 166.084-186.215V0h-249.14L407.861 95.366 476.732 223.8z"/><path class="cls-5" d="M771.415 406.81l61.26-138.371V0H0v914.542H832.675V433.931l-61.26-27.121z"/><path class="cls-1" d="M832.675 433.931V268.439l-61.26 138.371 61.26 27.121z"/><path class="cls-5" d="M681.482 683.333l151.193-253.428V0H0v914.542h764.332l-82.85-231.209z"/><path class="cls-5" d="M552.816 0H96.748l-57.81 120.491L0 80.086v834.456H832.675V0H552.816z"/><path class="cls-4" d="M96.748 0H0v80.086l38.938 40.405L96.748 0z"/><path class="cls-5" d="M545.602 538.37l287.073-333.162V0H0v914.542H832.675v-304.63L545.602 538.37z"/><path class="cls-1" d="M752.214 789.431l61.425-230.809-329.462-228.948-29.782 323.877 297.819 135.88z"/><path class="cls-4" d="M692.65 450.663l96.791-390.887L352.02 217.992l340.63 232.671z"/><path class="cls-6" d="M286.873 780.347L515.82 372.709 113.766 184.711l173.107 595.636z"/><path class="cls-6" transform="rotate(-13.918 625.64 126.785)" d="M540.018 41.163h171.246v171.246H540.018z"/><path class="cls-2" d="M525.127 553.038l119.128 85.622 14.89-135.879-134.018 50.257zM286.388 120.783l-49.583 138.073 107.77 48.482-58.187-186.555z"/><path class="cls-1" transform="rotate(27.235 389.247 290.585)" d="M303.624 204.963H474.87v171.246H303.624z"/><path class="cls-3" d="M584.691 756.149l26.289 158.393h221.695V702.121L679.62 674.25l-94.929 81.899z"/><path class="cls-1" d="M790.763 914.542h16.426l-23.332-30.182 6.906 30.182z"/></g></g></svg>