<svg id="Слой_1" data-name="Слой 1" xmlns="http://www.w3.org/2000/svg" viewBox="0 0 408.58733 442.33535">
  <defs>
    <style>
      .cls-1 {
        fill: #231941;
      }

      .cls-2 {
        fill: #ea788d;
      }

      .cls-3 {
        fill: #7a257d;
      }

      .cls-4 {
        fill: #f0a393;
      }

      .cls-5 {
        fill: #ea4b9c;
      }

      .cls-6 {
        fill: #291e47;
      }
    </style>
  </defs>
  <title>bg-empty</title>
  <rect class="cls-1" width="408.58733" height="442.33535"/>
  <polygon class="cls-2" points="408.587 280.989 245.655 240.385 408.587 51.774 408.587 280.989"/>
  <polygon class="cls-2" points="296.737 168.87 374.539 81.638 397.33 0.692 387.557 0 285.769 0 187.501 53.346 216.578 107.572 284.949 151.581 296.737 168.87"/>
  <polygon class="cls-3" points="30.909 442.335 108.913 192.447 286.656 442.335 30.909 442.335"/>
  <polygon class="cls-2" points="7.933 442.335 8.903 442.335 64.118 291.467 0 219.334 0 409.741 7.933 442.335"/>
  <polygon class="cls-4" points="303.024 298.54 354.551 442.335 397.827 442.335 408.587 424.618 408.587 213.682 385.542 160.225 303.024 298.54"/>
  <polygon class="cls-3" points="407.106 211.059 340.995 181.79 370.264 115.679 408.587 132.644 408.587 207.712 407.106 211.059"/>
  <polygon class="cls-2" points="231.51 161.011 65.69 87.139 118.323 0 151.334 0 231.51 161.011"/>
  <polygon class="cls-3" points="332.888 343.335 358.822 245.886 219.722 149.223 207.147 285.966 332.888 343.335"/>
  <polygon class="cls-4" points="307.74 200.305 348.605 35.271 163.924 102.071 307.74 200.305"/>
  <polygon class="cls-5" points="136.418 342.549 233.081 170.442 63.332 91.068 136.418 342.549"/>
  <rect class="cls-5" x="2726.44731" y="2602.52113" width="72.30077" height="72.30077" transform="translate(-3036.73303 -1833.13887) rotate(-13.91809)"/>
  <polygon class="cls-6" points="237.011 243.529 287.307 279.679 293.594 222.31 237.011 243.529"/>
  <polygon class="cls-6" points="181.795 401.313 167.062 442.335 198.468 442.335 181.795 401.313"/>
  <polygon class="cls-6" points="136.214 61.029 115.28 119.324 160.781 139.793 136.214 61.029"/>
  <polygon class="cls-4" points="207.933 297.754 240.022 442.335 289.148 442.335 295.952 339.406 207.933 297.754"/>
  <polygon class="cls-2" points="280.416 442.335 262.159 332.333 302.239 297.754 408.587 317.12 408.587 442.335 280.416 442.335"/>
  <rect class="cls-3" x="2626.64065" y="2671.67846" width="72.30077" height="72.30077" transform="translate(-948.72123 -3493.5166) rotate(27.23515)"/>
  <polygon class="cls-3" points="0 127.055 0 206.547 64.904 279.679 91.623 213.665 57.045 94.212 0 127.055"/>
  <polygon class="cls-3" points="0 114.115 57.831 83.995 108.656 0 0 0 0 114.115"/>
  <polyline class="cls-3" points="167.465 0 188.286 43.13 267.015 0"/>
  <polygon class="cls-3" points="394.972 50.989 408.587 3.161 408.587 36.948 394.972 50.989"/>
  <polygon class="cls-4" points="31.739 60.905 60.96 0 0 0 0 27.97 31.739 60.905"/>
  <polygon class="cls-6" points="378.129 442.335 367.792 429.164 408.587 397.145 408.587 442.335 378.129 442.335"/>
  <polygon class="cls-3" points="359.729 442.335 346.248 383.415 391.797 442.335 359.729 442.335"/>
</svg>
