<svg xmlns="http://www.w3.org/2000/svg" viewBox="0 0 32 32"><path fill="#fff" d="M21.4 18.7l-2.2-1.1c-.2-.1-.4-.1-.6.1l-.8.6c-.3.2-.6.2-.9.1-1.2-.9-2.2-2-3.2-3.2-.1-.3-.1-.6.1-.9l.6-.8c.1-.2.1-.4.1-.6l-1.1-2.2c-.1-.3-.4-.4-.6-.4h-1.1c-.8.4-1.4 1.4-1.3 2.3 0 2.5 2.1 4.9 3.2 5.9.8.9 3.4 3.3 6.1 3.3.9 0 1.9-.4 2.3-1.3 0-.1.1-.2 0-.3v-.7c-.2-.3-.3-.7-.6-.8zM0 0v32h32V0H0zm16.2 25.8c-1.7 0-3.5-.4-4.9-1.3l-5.6 1.8 1.8-5.6c-.8-1.5-1.3-3.3-1.3-4.9 0-5.6 4.5-10.1 10.1-10.1s10.1 4.5 10.1 10.1c-.1 5.5-4.6 10-10.2 10z"/></svg>