<svg xmlns="http://www.w3.org/2000/svg" viewBox="0 0 32 32"><path fill="#131416" d="M16-.1c-8.8 0-16 7.2-16 16s7.2 16 16 16 16-7.2 16-16-7.2-16-16-16zm0 31c-8.3 0-15-6.7-15-15S7.7.9 16 .9s15 6.7 15 15-6.7 15-15 15zm-5-19c.6 0 1 .4 1 1s-.4 1-1 1-1-.4-1-1 .4-1 1-1zm10 0c.6 0 1 .4 1 1s-.4 1-1 1-1-.4-1-1 .4-1 1-1zm-10.5 7c-.3 0-.5.3-.4.6.5 3.3 3.5 5.5 6.7 5.1.8-.1 1.5-.4 2.2-.8 1.6-.9 2.7-2.5 2.9-4.3 0-.3-.1-.5-.4-.6-.3 0-.5.1-.6.4-.2 1.5-1.1 2.8-2.4 3.6-2.4 1.4-5.4.6-6.8-1.7-.3-.6-.6-1.2-.6-1.8-.1-.3-.3-.5-.6-.5.1 0 0 0 0 0z"/></svg>