<svg xmlns="http://www.w3.org/2000/svg" viewBox="0 0 200 200"><path d="M145 130.5c-10.7 6.8-25.4 9.5-35.1 10.5l8.2 8 29.8 29.8c10.9 11.2-6.8 28.6-17.8 17.8-7.5-7.6-18.4-18.5-29.8-29.9l-29.8 29.9c-11 10.7-28.7-6.9-17.7-17.8 7.6-7.6 18.4-18.5 29.8-29.8l8-8c-9.6-1-24.6-3.6-35.4-10.5-12.7-8.2-18.3-13-13.4-23 2.9-5.7 10.8-10.5 21.3-2.2 0 0 14.2 11.3 37.1 11.3s37.1-11.3 37.1-11.3c10.5-8.2 18.4-3.5 21.3 2.2 4.7 10-.9 14.8-13.6 23zM49.4 50.7C49.4 22.7 72.2.1 100 .1s50.6 22.6 50.6 50.6c0 27.9-22.8 50.5-50.6 50.5S49.4 78.6 49.4 50.7zm25.8 0c0 13.7 11.2 24.9 24.9 24.9S125 64.4 125 50.7c0-13.8-11.2-25-24.9-25s-24.9 11.2-24.9 25z" fill="#fff"/></svg>