<svg xmlns="http://www.w3.org/2000/svg" viewBox="0 0 32 32"><path fill="#fff" d="M20.1 13.4c.1.2.2.3.4.3.4 0 .4-.3.4-.6-.1-.3-.1-.7-.2-1.1-.5-2-2.3-3.4-4.3-3.4-.2 0-.4.2-.4.3 0 .1.2.3.3.4.1.1.3.1.5.1 1.5.1 2.8 1.2 3.2 2.6 0 .5 0 .9.1 1.4zm1.7 4.4c-.8-.6-1.6-1.2-2.4-1.7-.5-.3-1.1-.2-1.4.3-.1.2-.3.3-.4.5l-.6.3v-.1h-.3c-.1 0-.2-.1-.3-.1-1.6-.6-2.8-1.8-3.4-3.4-.4-.9-.4-1 .4-1.7.5-.3.7-1 .4-1.5v-.1c-.5-.8-1.1-1.6-1.7-2.4-.3-.4-.7-.4-1.1-.2-.7.3-1.3.8-1.7 1.3-.3.4-.4 1-.2 1.5.6 1.2 1.1 2.5 1.9 3.7 2 3.1 5 5.4 8.5 6.5h.5c1-.3 1.8-1.1 2.1-2.1.2-.2 0-.6-.3-.8zm.8-4.3v-.3c0-.1 0-.3-.1-.4-.1-1.7-.9-3.2-2.2-4.3-1.2-1.1-2.8-1.6-4.4-1.7-.3 0-.5 0-.6.4 0 .3.2.4.5.5l1.8.3c2 .5 3.5 2.1 3.9 4.1.1.6.2 1.3.3 1.9 0 .3.1.5.5.5.3 0 .4-.3.4-.6-.1-.2-.1-.2-.1-.4zm-5.8-3.2c-.1.1-.3.2-.3.4-.1.3.2.4.4.4 1.1.2 1.3.4 1.5 1.5v.2c.1.1.3.3.4.3.1 0 .3-.3.4-.4.1-1.3-.9-2.4-2.2-2.4h-.2zM0 0v32h32V0H0zm26.8 15.6c0 1.2-.3 2.3-.6 3.4-.8 2.1-2.6 3.5-4.8 3.9-2 .3-4 .5-6 .5-.2 0-.4.1-.6.3-1.3 1.3-2.6 2.7-3.9 4l-.2.2c-.1.1-.3.2-.3.1-.1-.1-.2-.2-.2-.4v-2.3-2c0-.4-.2-.5-.5-.7-1.8-.6-3.2-2.1-3.9-3.9-.3-.8-.4-1.7-.5-2.5-.1-1.4-.1-2.9-.1-4.3 0-1.1.2-2.3.6-3.3.8-2.2 2.7-3.8 5-4.1 2.3-.4 4.7-.5 7-.4 1.5 0 3 .2 4.5.7 2.2.6 3.9 2.5 4.2 4.8.4 1.9.5 4 .3 6z"/></svg>