<svg xmlns="http://www.w3.org/2000/svg" width="20.089" height="19.948" viewBox="0 0 20.089 19.948"><defs><style>.a{fill:#fff;}</style></defs><g transform="translate(-367.408 -251.735)"><g transform="translate(367.408 251.735)"><g transform="translate(0)"><path class="a" d="M385.08,271.683h-.008l-15.236-.04a2.343,2.343,0,0,1-1.635-.592,2.746,2.746,0,0,1-.793-2.124l.038-14.331a2.963,2.963,0,0,1,.629-2.121,2.324,2.324,0,0,1,1.81-.74h.009s9.455.008,16.781.027a.8.8,0,0,1,0,1.6h0c-7.324-.02-16.779-.027-16.779-.027h-.005a.741.741,0,0,0-.618.205,1.422,1.422,0,0,0-.23.938c0,.027,0,.06,0,.087L369,268.932a1.337,1.337,0,0,0,.278.946.74.74,0,0,0,.466.172.6.6,0,0,0,.069,0l15.258.04a.839.839,0,0,0,.586-.18.931.931,0,0,0,.211-.592l.029-10.849a.8.8,0,0,0-.822-.8l-3.627-.01a.8.8,0,0,1,0-1.6h0l3.656.01h.04a2.391,2.391,0,0,1,2.344,2.4l-.029,10.828a2.53,2.53,0,0,1-.655,1.714A2.319,2.319,0,0,1,385.08,271.683Z" transform="translate(-367.408 -251.735)"/></g><g transform="translate(4.363 4.354)"><path class="a" d="M387.735,274.278H387.7l-8.359-.022a.8.8,0,0,1,0-1.6h0l8.338.022.008-3.227a.518.518,0,0,0-.035-.083l-7.641-.02a.783.783,0,0,1-.086,0,1.718,1.718,0,0,1-1.583-1.673l.009-3.295a1.749,1.749,0,0,1,.445-1.224,1.674,1.674,0,0,1,1.27-.506h.007l4.2.011a.8.8,0,0,1,0,1.6h0l-4.194-.012a.221.221,0,0,0-.127.016c.01-.008,0,.042,0,.072l-.008,3.346a.259.259,0,0,0,.146.078l7.3.02h.313a1.639,1.639,0,0,1,1.582,1.483.788.788,0,0,1,.008.115l-.009,3.346a1.524,1.524,0,0,1-.463,1.147A1.6,1.6,0,0,1,387.735,274.278Z" transform="translate(-378.345 -262.648)"/></g></g></g></svg>