<svg width="135" height="40" viewBox="0 0 135 40" fill="none" xmlns="http://www.w3.org/2000/svg">
<g clip-path="url(#clip0_1470_6202)">
<path d="M135 40H0L0.00072825 0H135V40Z" fill="black"/>
<path d="M30.1271 19.7841C30.0981 16.5611 32.7661 14.9931 32.8881 14.9201C31.3771 12.7171 29.0351 12.4161 28.2121 12.3921C26.2451 12.1851 24.3371 13.5691 23.3351 13.5691C22.3131 13.5691 20.7701 12.4121 19.1071 12.4461C16.9671 12.4791 14.9651 13.7181 13.8671 15.6421C11.6011 19.5651 13.2911 25.3301 15.4621 28.5011C16.5481 30.0541 17.8171 31.7881 19.4781 31.7271C21.1031 31.6601 21.7101 30.6911 23.6711 30.6911C25.6141 30.6911 26.1841 31.7271 27.8781 31.6881C29.6221 31.6601 30.7201 30.1281 31.7681 28.5611C33.0231 26.7811 33.5271 25.0281 33.5471 24.9381C33.5061 24.9241 30.1601 23.6471 30.1271 19.7841Z" fill="white"/>
<path d="M26.9271 10.306C27.8011 9.21304 28.3991 7.72604 28.2331 6.21704C26.9681 6.27304 25.3861 7.09204 24.4751 8.16104C23.6691 9.10304 22.9491 10.647 23.1351 12.099C24.5561 12.205 26.0151 11.382 26.9271 10.306Z" fill="white"/>
<path d="M53.6452 31.5039H51.3742L50.1302 27.5949H45.8062L44.6212 31.5039H42.4102L46.6942 18.1959H49.3402L53.6452 31.5039ZM49.7552 25.9549L48.6302 22.4799C48.5112 22.1249 48.2882 21.2889 47.9592 19.9729H47.9192C47.7882 20.5389 47.5772 21.3749 47.2872 22.4799L46.1822 25.9549H49.7552Z" fill="white"/>
<path d="M64.6629 26.5879C64.6629 28.2199 64.2219 29.5099 63.3399 30.4569C62.5499 31.2999 61.5689 31.7209 60.3979 31.7209C59.1339 31.7209 58.2259 31.2669 57.6729 30.3589H57.6329V35.4139H55.5009V25.0669C55.5009 24.0409 55.4739 22.9879 55.4219 21.9079H57.2969L57.4159 23.4289H57.4559C58.1669 22.2829 59.2459 21.7109 60.6939 21.7109C61.8259 21.7109 62.7709 22.1579 63.5269 23.0529C64.2849 23.9489 64.6629 25.1269 64.6629 26.5879ZM62.4909 26.6659C62.4909 25.7319 62.2809 24.9619 61.8589 24.3559C61.3979 23.7239 60.7789 23.4079 60.0029 23.4079C59.4769 23.4079 58.9989 23.5839 58.5719 23.9309C58.1439 24.2809 57.8639 24.7379 57.7329 25.3039C57.6669 25.5679 57.6339 25.7839 57.6339 25.9539V27.5539C57.6339 28.2519 57.8479 28.8409 58.2759 29.3219C58.7039 29.8029 59.2599 30.0429 59.9439 30.0429C60.7469 30.0429 61.3719 29.7329 61.8189 29.1149C62.2669 28.4959 62.4909 27.6799 62.4909 26.6659Z" fill="white"/>
<path d="M75.699 26.5879C75.699 28.2199 75.258 29.5099 74.375 30.4569C73.586 31.2999 72.605 31.7209 71.434 31.7209C70.17 31.7209 69.262 31.2669 68.71 30.3589H68.67V35.4139H66.538V25.0669C66.538 24.0409 66.511 22.9879 66.459 21.9079H68.334L68.453 23.4289H68.493C69.203 22.2829 70.282 21.7109 71.731 21.7109C72.862 21.7109 73.807 22.1579 74.565 23.0529C75.32 23.9489 75.699 25.1269 75.699 26.5879ZM73.527 26.6659C73.527 25.7319 73.316 24.9619 72.894 24.3559C72.433 23.7239 71.816 23.4079 71.039 23.4079C70.512 23.4079 70.035 23.5839 69.607 23.9309C69.179 24.2809 68.9 24.7379 68.769 25.3039C68.704 25.5679 68.67 25.7839 68.67 25.9539V27.5539C68.67 28.2519 68.884 28.8409 69.31 29.3219C69.738 29.8019 70.294 30.0429 70.98 30.0429C71.783 30.0429 72.408 29.7329 72.855 29.1149C73.303 28.4959 73.527 27.6799 73.527 26.6659Z" fill="white"/>
<path d="M88.0392 27.772C88.0392 28.904 87.6462 29.825 86.8572 30.536C85.9902 31.313 84.7832 31.701 83.2322 31.701C81.8002 31.701 80.6522 31.425 79.7832 30.872L80.2772 29.095C81.2132 29.661 82.2402 29.945 83.3592 29.945C84.1622 29.945 84.7872 29.763 85.2362 29.401C85.6832 29.039 85.9062 28.553 85.9062 27.947C85.9062 27.407 85.7222 26.952 85.3532 26.583C84.9862 26.214 84.3732 25.871 83.5172 25.554C81.1872 24.685 80.0232 23.412 80.0232 21.738C80.0232 20.644 80.4312 19.747 81.2482 19.049C82.0622 18.35 83.1482 18.001 84.5062 18.001C85.7172 18.001 86.7232 18.212 87.5262 18.633L86.9932 20.371C86.2432 19.963 85.3952 19.759 84.4462 19.759C83.6962 19.759 83.1102 19.944 82.6902 20.312C82.3352 20.641 82.1572 21.042 82.1572 21.517C82.1572 22.043 82.3602 22.478 82.7682 22.82C83.1232 23.136 83.7682 23.478 84.7042 23.847C85.8492 24.308 86.6902 24.847 87.2312 25.465C87.7702 26.081 88.0392 26.852 88.0392 27.772Z" fill="white"/>
<path d="M95.0881 23.508H92.7381V28.167C92.7381 29.352 93.1521 29.944 93.9821 29.944C94.3631 29.944 94.6791 29.911 94.9291 29.845L94.9881 31.464C94.5681 31.621 94.0151 31.7 93.3301 31.7C92.4881 31.7 91.8301 31.443 91.3551 30.93C90.8821 30.416 90.6441 29.554 90.6441 28.343V23.506H89.2441V21.906H90.6441V20.149L92.7381 19.517V21.906H95.0881V23.508Z" fill="white"/>
<path d="M105.692 26.627C105.692 28.102 105.27 29.313 104.428 30.26C103.545 31.235 102.373 31.721 100.912 31.721C99.504 31.721 98.383 31.254 97.547 30.32C96.711 29.386 96.293 28.207 96.293 26.786C96.293 25.299 96.723 24.081 97.586 23.134C98.447 22.186 99.609 21.712 101.07 21.712C102.478 21.712 103.611 22.179 104.466 23.114C105.284 24.021 105.692 25.192 105.692 26.627ZM103.48 26.696C103.48 25.811 103.291 25.052 102.908 24.419C102.461 23.653 101.822 23.271 100.994 23.271C100.137 23.271 99.486 23.654 99.039 24.419C98.656 25.053 98.467 25.824 98.467 26.736C98.467 27.621 98.656 28.38 99.039 29.012C99.5 29.778 100.144 30.16 100.975 30.16C101.789 30.16 102.428 29.77 102.889 28.992C103.282 28.347 103.48 27.58 103.48 26.696Z" fill="white"/>
<path d="M112.62 23.7829C112.409 23.7439 112.184 23.7239 111.948 23.7239C111.198 23.7239 110.618 24.0069 110.21 24.5739C109.855 25.0739 109.677 25.7059 109.677 26.4689V31.5039H107.546L107.566 24.9299C107.566 23.8239 107.539 22.8169 107.486 21.9089H109.343L109.421 23.7449H109.48C109.705 23.1139 110.06 22.6059 110.546 22.2249C111.021 21.8819 111.534 21.7109 112.087 21.7109C112.284 21.7109 112.462 21.7249 112.62 21.7499V23.7829Z" fill="white"/>
<path d="M122.157 26.252C122.157 26.634 122.132 26.956 122.079 27.219H115.683C115.708 28.167 116.017 28.892 116.611 29.392C117.15 29.839 117.847 30.063 118.703 30.063C119.65 30.063 120.514 29.912 121.291 29.609L121.625 31.089C120.717 31.485 119.645 31.682 118.408 31.682C116.92 31.682 115.752 31.244 114.902 30.369C114.054 29.494 113.629 28.319 113.629 26.845C113.629 25.398 114.024 24.193 114.815 23.232C115.643 22.206 116.762 21.693 118.17 21.693C119.553 21.693 120.6 22.206 121.311 23.232C121.874 24.047 122.157 25.055 122.157 26.252ZM120.124 25.699C120.138 25.067 119.999 24.521 119.71 24.06C119.341 23.467 118.774 23.171 118.011 23.171C117.314 23.171 116.747 23.46 116.314 24.04C115.959 24.501 115.748 25.054 115.683 25.698H120.124V25.699Z" fill="white"/>
<path d="M49.0498 10.0091C49.0498 11.1861 48.6968 12.0721 47.9918 12.6671C47.3388 13.2161 46.4108 13.4911 45.2088 13.4911C44.6128 13.4911 44.1028 13.4651 43.6758 13.4131V6.98207C44.2328 6.89207 44.8328 6.84607 45.4808 6.84607C46.6258 6.84607 47.4888 7.09507 48.0708 7.59307C48.7228 8.15607 49.0498 8.96107 49.0498 10.0091ZM47.9448 10.0381C47.9448 9.27507 47.7428 8.69007 47.3388 8.28207C46.9348 7.87507 46.3448 7.67107 45.5678 7.67107C45.2378 7.67107 44.9568 7.69307 44.7238 7.73907V12.6281C44.8528 12.6481 45.0888 12.6571 45.4318 12.6571C46.2338 12.6571 46.8528 12.4341 47.2888 11.9881C47.7248 11.5421 47.9448 10.8921 47.9448 10.0381Z" fill="white"/>
<path d="M54.908 11.037C54.908 11.762 54.701 12.356 54.287 12.822C53.853 13.301 53.278 13.54 52.56 13.54C51.868 13.54 51.317 13.311 50.906 12.851C50.496 12.392 50.291 11.813 50.291 11.115C50.291 10.385 50.502 9.78605 50.926 9.32105C51.35 8.85605 51.92 8.62305 52.638 8.62305C53.33 8.62305 53.886 8.85205 54.307 9.31105C54.707 9.75705 54.908 10.333 54.908 11.037ZM53.821 11.071C53.821 10.636 53.727 10.263 53.54 9.95205C53.32 9.57605 53.007 9.38805 52.6 9.38805C52.179 9.38805 51.859 9.57605 51.639 9.95205C51.451 10.263 51.358 10.642 51.358 11.09C51.358 11.525 51.452 11.898 51.639 12.209C51.866 12.585 52.182 12.773 52.59 12.773C52.99 12.773 53.304 12.582 53.53 12.199C53.724 11.882 53.821 11.506 53.821 11.071Z" fill="white"/>
<path d="M62.7655 8.71899L61.2905 13.433H60.3305L59.7195 11.386C59.5645 10.875 59.4385 10.367 59.3405 9.86299H59.3215C59.2305 10.381 59.1045 10.888 58.9425 11.386L58.2935 13.433H57.3225L55.9355 8.71899H57.0125L57.5455 10.96C57.6745 11.49 57.7805 11.995 57.8655 12.473H57.8845C57.9625 12.079 58.0915 11.577 58.2735 10.97L58.9425 8.71999H59.7965L60.4375 10.922C60.5925 11.459 60.7185 11.976 60.8155 12.474H60.8445C60.9155 11.989 61.0225 11.472 61.1645 10.922L61.7365 8.71999H62.7655V8.71899Z" fill="white"/>
<path d="M68.1984 13.433H67.1504V10.733C67.1504 9.901 66.8344 9.48499 66.2004 9.48499C65.8894 9.48499 65.6384 9.599 65.4434 9.828C65.2504 10.057 65.1524 10.327 65.1524 10.636V13.432H64.1044V10.066C64.1044 9.652 64.0914 9.203 64.0664 8.717H64.9874L65.0364 9.454H65.0654C65.1874 9.225 65.3694 9.036 65.6084 8.885C65.8924 8.709 66.2104 8.62 66.5584 8.62C66.9984 8.62 67.3644 8.762 67.6554 9.047C68.0174 9.396 68.1984 9.917 68.1984 10.609V13.433Z" fill="white"/>
<path d="M71.088 13.433H70.041V6.55603H71.088V13.433Z" fill="white"/>
<path d="M77.2576 11.037C77.2576 11.762 77.0506 12.356 76.6366 12.822C76.2026 13.301 75.6266 13.54 74.9096 13.54C74.2166 13.54 73.6656 13.311 73.2556 12.851C72.8456 12.392 72.6406 11.813 72.6406 11.115C72.6406 10.385 72.8516 9.78605 73.2756 9.32105C73.6996 8.85605 74.2696 8.62305 74.9866 8.62305C75.6796 8.62305 76.2346 8.85205 76.6566 9.31105C77.0566 9.75705 77.2576 10.333 77.2576 11.037ZM76.1696 11.071C76.1696 10.636 76.0756 10.263 75.8886 9.95205C75.6696 9.57605 75.3556 9.38805 74.9496 9.38805C74.5276 9.38805 74.2076 9.57605 73.9886 9.95205C73.8006 10.263 73.7076 10.642 73.7076 11.09C73.7076 11.525 73.8016 11.898 73.9886 12.209C74.2156 12.585 74.5316 12.773 74.9396 12.773C75.3396 12.773 75.6526 12.582 75.8786 12.199C76.0736 11.882 76.1696 11.506 76.1696 11.071Z" fill="white"/>
<path d="M82.329 13.433H81.388L81.31 12.89H81.281C80.959 13.323 80.5 13.54 79.904 13.54C79.459 13.54 79.099 13.397 78.828 13.113C78.582 12.855 78.459 12.534 78.459 12.153C78.459 11.577 78.699 11.138 79.182 10.834C79.664 10.53 80.342 10.381 81.215 10.388V10.3C81.215 9.67905 80.889 9.36905 80.236 9.36905C79.771 9.36905 79.361 9.48605 79.007 9.71805L78.794 9.03005C79.232 8.75905 79.773 8.62305 80.411 8.62305C81.643 8.62305 82.261 9.27305 82.261 10.573V12.309C82.261 12.78 82.284 13.155 82.329 13.433ZM81.241 11.813V11.086C80.085 11.066 79.507 11.383 79.507 12.036C79.507 12.282 79.573 12.466 79.708 12.589C79.843 12.712 80.015 12.773 80.22 12.773C80.45 12.773 80.665 12.7 80.861 12.555C81.058 12.409 81.179 12.224 81.224 11.997C81.235 11.946 81.241 11.884 81.241 11.813Z" fill="white"/>
<path d="M88.2852 13.433H87.3552L87.3062 12.676H87.2772C86.9802 13.252 86.4742 13.54 85.7632 13.54C85.1952 13.54 84.7222 13.317 84.3472 12.871C83.9722 12.425 83.7852 11.846 83.7852 11.135C83.7852 10.372 83.9882 9.75403 84.3962 9.28203C84.7912 8.84203 85.2752 8.62203 85.8512 8.62203C86.4842 8.62203 86.9272 8.83503 87.1792 9.26203H87.1992V6.55603H88.2482V12.163C88.2482 12.622 88.2602 13.045 88.2852 13.433ZM87.1992 11.445V10.659C87.1992 10.523 87.1892 10.413 87.1702 10.329C87.1112 10.077 86.9842 9.86503 86.7912 9.69403C86.5962 9.52303 86.3611 9.43703 86.0901 9.43703C85.6991 9.43703 85.3932 9.59203 85.1682 9.90303C84.9452 10.214 84.8322 10.611 84.8322 11.096C84.8322 11.562 84.9392 11.94 85.1542 12.231C85.3812 12.541 85.6872 12.696 86.0702 12.696C86.4142 12.696 86.6892 12.567 86.8982 12.308C87.1002 12.069 87.1992 11.781 87.1992 11.445Z" fill="white"/>
<path d="M97.2479 11.037C97.2479 11.762 97.0409 12.356 96.6269 12.822C96.1929 13.301 95.6189 13.54 94.8999 13.54C94.2089 13.54 93.6579 13.311 93.2459 12.851C92.8359 12.392 92.6309 11.813 92.6309 11.115C92.6309 10.385 92.8419 9.78605 93.2659 9.32105C93.6899 8.85605 94.2599 8.62305 94.9789 8.62305C95.6699 8.62305 96.2269 8.85205 96.6469 9.31105C97.0469 9.75705 97.2479 10.333 97.2479 11.037ZM96.1619 11.071C96.1619 10.636 96.0679 10.263 95.8809 9.95205C95.6599 9.57605 95.3479 9.38805 94.9399 9.38805C94.5199 9.38805 94.1999 9.57605 93.9789 9.95205C93.7909 10.263 93.6979 10.642 93.6979 11.09C93.6979 11.525 93.7919 11.898 93.9789 12.209C94.2059 12.585 94.5219 12.773 94.9299 12.773C95.3299 12.773 95.6449 12.582 95.8709 12.199C96.0639 11.882 96.1619 11.506 96.1619 11.071Z" fill="white"/>
<path d="M102.883 13.433H101.836V10.733C101.836 9.901 101.52 9.48499 100.885 9.48499C100.574 9.48499 100.323 9.599 100.129 9.828C99.935 10.057 99.838 10.327 99.838 10.636V13.432H98.789V10.066C98.789 9.652 98.777 9.203 98.752 8.717H99.672L99.721 9.454H99.75C99.873 9.225 100.055 9.036 100.293 8.885C100.578 8.709 100.895 8.62 101.244 8.62C101.683 8.62 102.049 8.762 102.34 9.047C102.703 9.396 102.883 9.917 102.883 10.609V13.433Z" fill="white"/>
<path d="M109.935 9.50404H108.781V11.794C108.781 12.376 108.986 12.667 109.392 12.667C109.58 12.667 109.736 12.651 109.859 12.618L109.886 13.413C109.679 13.491 109.407 13.53 109.072 13.53C108.658 13.53 108.336 13.404 108.103 13.152C107.869 12.9 107.753 12.476 107.753 11.881V9.50404H107.064V8.71904H107.753V7.85504L108.78 7.54504V8.71804H109.934V9.50404H109.935Z" fill="white"/>
<path d="M115.485 13.433H114.436V10.753C114.436 9.90803 114.12 9.48503 113.487 9.48503C113.001 9.48503 112.669 9.73003 112.487 10.22C112.456 10.323 112.438 10.449 112.438 10.597V13.432H111.391V6.55603H112.438V9.39703H112.458C112.788 8.88003 113.261 8.62203 113.874 8.62203C114.308 8.62203 114.667 8.76403 114.952 9.04903C115.307 9.40403 115.485 9.93203 115.485 10.63V13.433Z" fill="white"/>
<path d="M121.207 10.853C121.207 11.041 121.193 11.199 121.168 11.328H118.025C118.039 11.794 118.189 12.149 118.48 12.395C118.746 12.615 119.089 12.725 119.509 12.725C119.974 12.725 120.398 12.651 120.78 12.502L120.944 13.23C120.497 13.424 119.971 13.521 119.362 13.521C118.632 13.521 118.057 13.306 117.641 12.876C117.223 12.446 117.016 11.869 117.016 11.145C117.016 10.434 117.209 9.84201 117.598 9.37001C118.004 8.86601 118.553 8.61401 119.246 8.61401C119.924 8.61401 120.439 8.86601 120.787 9.37001C121.068 9.77001 121.207 10.265 121.207 10.853ZM120.207 10.582C120.215 10.271 120.146 10.003 120.004 9.77701C119.822 9.48601 119.545 9.34001 119.17 9.34001C118.828 9.34001 118.549 9.48201 118.336 9.76701C118.162 9.99401 118.059 10.265 118.025 10.582H120.207Z" fill="white"/>
</g>
<defs>
<clipPath id="clip0_1470_6202">
<rect width="135" height="40" rx="8" fill="white"/>
</clipPath>
</defs>
</svg>
