<svg xmlns="http://www.w3.org/2000/svg" viewBox="0 0 32 32"><path fill="#fff" d="M16 12.9c1.4 0 2.5-1.1 2.5-2.5S17.4 7.9 16 7.9s-2.5 1.1-2.5 2.5 1.1 2.5 2.5 2.5zM0 0v32h32V0H0zm16.1 4.5c3.3 0 5.9 2.7 5.8 6-.1 3.2-2.7 5.8-5.9 5.8-3.3 0-5.9-2.7-5.9-5.9s2.7-5.9 6-5.9c-.1 0 0 0 0 0zm5.8 15.2c-1 .7-2.1 1.1-3.2 1.4-.1 0-.2.1-.3.1h-.1l.2.2 3.1 3.1c.7.6.7 1.7.1 2.4-.2.2-.4.4-.7.4-.6.2-1.3.1-1.8-.4l-3-3c-.2-.2-.2-.2-.4 0l-3 3c-.6.7-1.7.7-2.4.1s-.8-1.7-.1-2.4l.1-.1 3.1-3.1.2-.2c-.3-.1-.5-.2-.7-.2-1-.3-1.9-.7-2.7-1.2-.6-.4-.9-1-.8-1.7.1-.7.7-1.3 1.4-1.4.4-.1.8 0 1.2.3 1 .6 2.1 1 3.2 1.1 1.7.2 3.3-.2 4.8-1.1.7-.5 1.6-.4 2.2.2.6.7.6 1.7-.1 2.4-.1 0-.2 0-.3.1z"/></svg>