<svg xmlns="http://www.w3.org/2000/svg" viewBox="0 0 200 200"><path d="M195.4 48.7c1.4-4.6 0-8.1-6.6-8.1H167c-5.6 0-8.1 2.9-9.5 6.2 0 0-11.1 27.1-26.9 44.7-5.1 5.1-7.4 6.7-10.2 6.7-1.4 0-3.5-1.6-3.5-6.3V48.7c0-5.6-1.6-8.1-6.2-8.1H76.3c-3.5 0-5.6 2.6-5.6 5 0 5.3 7.9 6.5 8.7 21.3v32.2c0 7.1-1.3 8.4-4 8.4-7.4 0-25.5-27.3-36.2-58.4-2.2-6.1-4.3-8.5-9.9-8.5H7.5c-6.2 0-7.5 2.9-7.5 6.2 0 5.8 7.4 34.6 34.6 72.6 18.1 26 43.6 40 66.7 40 13.9 0 15.6-3.1 15.6-8.5 0-24.8-1.3-27.1 5.7-27.1 3.2 0 8.8 1.6 21.8 14.1 14.9 14.9 17.3 21.5 25.6 21.5h21.9c6.2 0 9.4-3.1 7.6-9.3-4.2-13-32.3-39.6-33.5-41.4-3.2-4.2-2.3-6 0-9.7 0 0 26.7-37.6 29.4-50.3z" fill="#fff"/></svg>