<svg xmlns="http://www.w3.org/2000/svg" viewBox="0 0 448 448"><path d="M224.05 109.138A114.862 114.862 0 10338.886 224 114.667 114.667 0 00224.05 109.138zm0 189.537A74.675 74.675 0 11298.708 224a74.802 74.802 0 01-74.658 74.675zM370.368 104.44a26.785 26.785 0 11-26.785-26.791 26.726 26.726 0 0126.785 26.791zm76.058 27.19c-1.7-35.887-9.895-67.676-36.18-93.868-26.185-26.19-57.968-34.388-93.848-36.188-36.979-2.099-147.817-2.099-184.796 0-35.78 1.7-67.563 9.897-93.848 36.088s-34.38 57.981-36.18 93.869c-2.099 36.988-2.099 147.85 0 184.838 1.7 35.888 9.895 67.677 36.18 93.869s57.968 34.388 93.848 36.188c36.979 2.099 147.817 2.099 184.796 0 35.88-1.7 67.663-9.897 93.848-36.188 26.185-26.192 34.38-57.98 36.18-93.869 2.099-36.988 2.099-147.75 0-184.738zm-47.773 224.426a75.594 75.594 0 01-42.577 42.586c-29.483 11.696-99.444 8.997-132.026 8.997s-102.643 2.599-132.026-8.997a75.594 75.594 0 01-42.577-42.586c-11.693-29.49-8.995-99.467-8.995-132.056s-2.598-102.666 8.995-132.056a75.594 75.594 0 0142.577-42.586c29.483-11.696 99.444-8.997 132.026-8.997s102.643-2.599 132.026 8.997a75.594 75.594 0 0142.577 42.586c11.693 29.49 8.995 99.467 8.995 132.056s2.698 102.666-8.995 132.056z" fill="#fff"/></svg>