<svg xmlns="http://www.w3.org/2000/svg" viewBox="0 0 32 32"><path fill="#B2B9BF" d="M0 0v32h32V0H0zm28.9 24l-3.8.1c-.7.1-1.4-.2-1.9-.6-1.4-1-2.8-3.5-3.8-3.2-1 .3-1 2.6-1 2.6 0 .3-.1.5-.2.7-.2.3-.5.4-.8.4h-1.7c-2.7-.1-5.2-1.2-7-3.2C5.1 17.1 1.9 9.6 1.9 9.6s-.2-.5 0-.7c.2-.3.8-.3.8-.3h4.1c.2 0 .5.1.7.3.1.1.2.3.3.5.4 1.1.9 2.1 1.5 3.2 1.7 2.9 2.5 3.6 3.1 3.3.8-.5.6-4.1.6-4.1 0-.7-.1-1.3-.4-1.9-.3-.4-.8-.6-1.3-.6-.2 0 .1-.6.6-.8 1.1-.4 2.3-.5 3.5-.4.7 0 1.3 0 2 .2 1.4.3.9 1.6.9 4.8 0 1-.2 2.4.5 2.9.3.2 1.1 0 3-3.2.6-1.1 1.1-2.2 1.6-3.3.1-.2.2-.3.4-.5.2-.1.4-.1.6-.1h4.3s1.3-.2 1.5.4c.2.6-.5 2-2.2 4.4-2.9 3.8-3.2 3.5-.8 5.7 1.1.9 2.1 2 2.8 3.3.9 1.2-1.1 1.3-1.1 1.3z"/></svg>