<svg version="1.1" id="Layer_1" xmlns="http://www.w3.org/2000/svg" x="0" y="0" viewBox="0 0 56 14" xml:space="preserve"><path fill="#64aaff" d="M9.5 8.2c0-1-.9-1.9-1.9-1.9H2c-.4 0-.8-.4-.8-.8V3.7c0-.4.4-.8.8-.8h7c.3 0 .6-.2.6-.6 0-.3-.3-.6-.6-.6H2c-1.1 0-2 .9-2 2v1.8c0 1.1.9 1.9 2 1.9h5.6c.4 0 .8.4.8.8v1.6c0 .4-.4.8-.8.8h-7c-.3 0-.6.2-.6.6s.3.6.6.6h7c1.1 0 2-.9 2-2V8.2zm21.3 0c0-1-.9-1.9-1.9-1.9h-5.6c-.4 0-.8-.4-.8-.8V3.7c0-.4.4-.8.8-.8h7c.3 0 .6-.3.6-.6s-.3-.6-.6-.6h-6.9c-1.1 0-2 .9-2 2v1.8c0 1.1.9 1.9 2 1.9H29c.4 0 .8.4.8.8v1.6c0 .4-.4.8-.8.8h-7c-.3 0-.6.3-.6.6s.2.6.6.6h7c1.1 0 2-.9 2-2v-.1l-.2-1.5zm10.6 0c0-1-.9-1.9-1.9-1.9h-5.6c-.4 0-.8-.4-.8-.8V3.7c0-.4.4-.8.8-.8h7c.3 0 .6-.3.6-.6s-.3-.6-.6-.6H34c-1.1 0-2 .9-2 2v1.8c0 1.1.9 1.9 2 1.9h5.6c.4 0 .8.4.8.8v1.6c0 .4-.4.8-.8.8h-7c-.3 0-.6.2-.6.6 0 .3.3.6.6.6h7c1.1 0 2-.9 2-2v-.1l-.2-1.5zm2.9-5.9c0-.3-.3-.6-.6-.5-.3 0-.5.2-.6.5v8.9c0 .3.3.5.6.5s.5-.2.5-.5l.1-8.9zm-24.8 8.4h-7c-.4 0-.8-.4-.8-.8V6.5h5.1c.3 0 .6-.2.6-.6 0-.3-.3-.6-.6-.6h-5.1V3.6c0-.2.1-.4.2-.5.2-.2.4-.2.6-.2h7c.3 0 .6-.2.6-.5s-.3-.6-.6-.6h-7c-1.1 0-1.9.8-2 1.9V9.8c0 1.1.9 1.9 2 1.9h7c.3 0 .6-.2.6-.6 0-.2-.3-.4-.6-.4zM56 3.8c0-1.1-.9-1.9-1.9-1.9h-6.2c-1.1 0-1.9.9-1.9 1.9v7.4c0 .3.2.6.5.6s.6-.2.6-.5V6.5H55v4.6c0 .3.2.6.5.6s.6-.2.6-.5v-.1L56 3.8zm-9 1.6V3.7c0-.4.4-.8.8-.8H54c.4 0 .8.4.8.8v1.7H47zM43.2.8c0 .3.3.5.6.5s.5-.2.5-.5V.5c0-.3-.3-.5-.6-.5s-.5.2-.5.5v.3z"/></svg>