<svg width="1122" height="190" viewBox="0 0 1122 190" fill="none" xmlns="http://www.w3.org/2000/svg">
    <g clip-path="url(#clip0_862_5371)">
        <path d="M351.41 189.17C339.79 189.157 328.649 184.535 320.432 176.318C312.215 168.101 307.593 156.96 307.58 145.34V43.83C307.58 32.2056 312.198 21.0572 320.418 12.8375C328.637 4.61779 339.786 0 351.41 0C363.035 0 374.183 4.61779 382.403 12.8375C390.622 21.0572 395.24 32.2056 395.24 43.83V145.34C395.227 156.96 390.605 168.101 382.388 176.318C374.171 184.535 363.03 189.157 351.41 189.17V189.17ZM351.41 17C344.297 17.0079 337.477 19.8372 332.447 24.8671C327.417 29.897 324.588 36.7167 324.58 43.83V145.34C324.58 152.456 327.407 159.28 332.438 164.312C337.47 169.343 344.294 172.17 351.41 172.17C358.526 172.17 365.35 169.343 370.382 164.312C375.413 159.28 378.24 152.456 378.24 145.34V43.83C378.23 36.7175 375.399 29.8993 370.37 24.87C365.341 19.8407 358.523 17.0106 351.41 17V17ZM1102.48 6L1034.48 159.22L966.9 6.01H946.74L1024.84 181.66H1043.24L1121.36 6.01L1102.48 6Z" fill="#00A8E2"/>
        <path d="M118.44 22.07C131.153 32.77 137.51 47.49 137.51 66.23C137.51 84.97 131.153 99.6366 118.44 110.23C105.72 120.85 88.1533 126.16 65.74 126.16H18.57V181.62H0V6.00997H65.74C88.16 6.00997 105.727 11.3633 118.44 22.07V22.07ZM105.14 98.48C114.34 90.86 118.94 80.11 118.94 66.23C118.94 52.01 114.34 41.0933 105.14 33.48C95.94 25.8666 82.64 22.0633 65.24 22.07H18.57V109.89H65.24C82.64 109.89 95.94 106.087 105.14 98.48V98.48ZM273.47 181.66L233.32 125.2C228.671 125.706 223.997 125.956 219.32 125.95H172.09V181.66H153.52V6.00997H219.27C241.683 6.00997 259.247 11.3633 271.96 22.07C284.673 32.7766 291.03 47.4966 291.03 66.23C291.03 79.95 287.56 91.5333 280.62 100.98C273.68 110.427 263.753 117.247 250.84 121.44L293.84 181.66H273.47ZM258.66 98.6C267.86 90.9133 272.46 80.1233 272.46 66.23C272.46 52.01 267.86 41.0933 258.66 33.48C249.46 25.8666 236.16 22.0633 218.76 22.07H172.09V110.14H218.76C236.16 110.14 249.46 106.293 258.66 98.6ZM427.21 178.6C435.841 182.971 445.395 185.207 455.07 185.12C471.957 185.12 484.713 180.48 493.34 171.2C501.967 161.92 506.273 148.077 506.26 129.67V6.00997H417.7V22.07H487.94V130.46C487.94 156.227 477.067 169.11 455.32 169.11C439.76 169.11 427.13 161.917 417.43 147.53L406.43 160.07C411.633 167.969 418.81 174.37 427.25 178.64L427.21 178.6ZM543.51 165.64V100.36H634.35V84.55H543.47V22.07H645.35V6.00997H524.9V181.66H649.11V165.6L543.51 165.64ZM869.24 181.7H887.81V22.07H943.54L936.54 6.00997H807.54V22.07H869.27L869.24 181.7ZM803.57 125.11C796.487 139.901 784.588 151.846 769.824 158.985C755.061 166.125 738.309 168.036 722.317 164.404C706.324 160.772 692.041 151.814 681.809 138.998C671.577 126.182 666.004 110.269 666.004 93.87C666.004 77.4706 671.577 61.558 681.809 48.742C692.041 35.926 706.324 26.9675 722.317 23.3358C738.309 19.7042 755.061 21.6148 769.824 28.7545C784.588 35.8942 796.487 47.8391 803.57 62.63H822.05C814.727 43.0133 800.747 26.5923 782.549 16.2347C764.351 5.87701 743.094 2.24093 722.488 5.96143C701.883 9.68193 683.239 20.5226 669.812 36.5902C656.386 52.6578 649.031 72.9312 649.031 93.87C649.031 114.809 656.386 135.082 669.812 151.15C683.239 167.217 701.883 178.058 722.488 181.779C743.094 185.499 764.351 181.863 782.549 171.505C800.747 161.148 814.727 144.727 822.05 125.11H803.57Z" fill="black"/>
    </g>
    <defs>
        <clipPath id="clip0_862_5371">
            <rect width="1121.38" height="189.17" fill="white"/>
        </clipPath>
    </defs>
</svg>
