<svg xmlns="http://www.w3.org/2000/svg" viewBox="0 0 1122 190"><path d="M351.41 189.17a43.88 43.88 0 0 1-43.83-43.83V43.83a43.83 43.83 0 0 1 87.66 0v101.51a43.88 43.88 0 0 1-43.83 43.83Zm0-172.17a26.86 26.86 0 0 0-26.83 26.83v101.51c0 7.116 2.827 13.94 7.858 18.972a26.833 26.833 0 0 0 37.944 0 26.833 26.833 0 0 0 7.858-18.972V43.83A26.869 26.869 0 0 0 351.41 17Zm751.07-11-68 153.22L966.9 6.01h-20.16l78.1 175.65h18.4l78.12-175.65-18.88-.01Z" fill="#00A8E2"></path><path d="M118.44 22.07c12.713 10.7 19.07 25.42 19.07 44.16 0 18.74-6.357 33.407-19.07 44-12.72 10.62-30.287 15.93-52.7 15.93H18.57v55.46H0V6.01h65.74c22.42 0 39.987 5.353 52.7 16.06Zm-13.3 76.41c9.2-7.62 13.8-18.37 13.8-32.25 0-14.22-4.6-25.137-13.8-32.75-9.2-7.613-22.5-11.417-39.9-11.41H18.57v87.82h46.67c17.4 0 30.7-3.803 39.9-11.41Zm168.33 83.18-40.15-56.46c-4.649.506-9.323.756-14 .75h-47.23v55.71h-18.57V6.01h65.75c22.413 0 39.977 5.353 52.69 16.06 12.713 10.707 19.07 25.427 19.07 44.16 0 13.72-3.47 25.303-10.41 34.75-6.94 9.447-16.867 16.267-29.78 20.46l43 60.22h-20.37ZM258.66 98.6c9.2-7.687 13.8-18.477 13.8-32.37 0-14.22-4.6-25.137-13.8-32.75-9.2-7.613-22.5-11.417-39.9-11.41h-46.67v88.07h46.67c17.4 0 30.7-3.847 39.9-11.54Zm168.55 80a60.461 60.461 0 0 0 27.86 6.52c16.887 0 29.643-4.64 38.27-13.92 8.627-9.28 12.933-23.123 12.92-41.53V6.01H417.7v16.06h70.24v108.39c0 25.767-10.873 38.65-32.62 38.65-15.56 0-28.19-7.193-37.89-21.58l-11 12.54a54.262 54.262 0 0 0 20.82 18.57l-.04-.04Zm116.3-12.96v-65.28h90.84V84.55h-90.88V22.07h101.88V6.01H524.9v175.65h124.21V165.6l-105.6.04Zm325.73 16.06h18.57V22.07h55.73l-7-16.06h-129v16.06h61.73l-.03 159.63Zm-65.67-56.59a72.324 72.324 0 0 1-33.746 33.875 72.324 72.324 0 0 1-88.015-19.987A72.33 72.33 0 1 1 803.57 62.63h18.48a89.33 89.33 0 1 0 0 62.48h-18.48Z" fill="currentColor"></path></svg>