<svg version="1.1" id="Layer_1" xmlns="http://www.w3.org/2000/svg" x="0" y="0" viewBox="0 0 22 22" xml:space="preserve"><style>.st1{fill:#fff}</style><g id="Group_6150" transform="translate(-31.389 -75.829)" class="st0"><path id="Path_10203" class="st1" d="M35.7 78.1c-.1.1-.3.2-.4.3.1-.1.2-.2.4-.3z"/><path id="Path_10204" class="st1" d="M36.9 77.3z"/><path id="Path_10205" class="st1" d="M36.3 77.7c-.2.1-.3.2-.5.3.2-.1.3-.2.5-.3z"/><path id="Path_10206" class="st1" d="M35.6 78.2c-.1.1-.2.1-.3.2.1-.1.2-.2.3-.2 0-.1 0 0 0 0z"/><path id="Path_10207" class="st1" d="M36 77.9c-.1 0-.1.1-.2.1.2-.1.3-.2.5-.3-.1 0-.2.1-.3.2z"/><path id="Path_10208" class="st1" d="M36.3 77.7z"/><path id="Path_10209" class="st1" d="M36.9 77.3z"/><path id="Path_10210" class="st1" d="M35.7 78.1l.1-.1-.1.1z"/><path id="Path_10211" class="st1" d="M36.8 77.3c-.2.1-.4.2-.5.3.2-.1.3-.2.5-.3z"/><path id="Path_10212" class="st1" d="M36.9 77.3c-.2.1-.4.2-.6.4.2-.2.4-.3.6-.4z"/><path id="Path_10213" class="st1" d="M53.4 85.9c-.1 0 0 0 0 0-.5-5.3-4.7-9.5-10-10v.1h-.1c1.7 1.5 2.9 3.5 3.3 5.8.1.3.1.5.2.8.2 0 .5.1.7.1.6.1 1.3.3 1.9.5.3.1.5.2.8.3.1 0 .2.1.3.1.2.1.4.2.5.3.1.1.2.1.4.2s.2.1.3.2c.1.1.3.2.4.3.1.1.2.1.2.2.1.1.2.2.4.3l.2.2c.1.1.2.2.3.4l.2.2c-1.9-1.4-4.1-2.1-6.3-1.9-.6 0-1.2 0-1.7.1.1-.6.1-1.1.1-1.7v-.1c.1-2.3-.6-4.5-2-6.4h.1H42c-1.7.1-3.4.6-4.9 1.4-.2.1-.4.2-.6.4-.2.1-.3.2-.5.3l-.1.1c-.1.1-.3.2-.4.3-.3.2-.5.5-.7.7 0 .1-.1.1-.1.2-.2.3-.5.5-.7.8v.1c-.2.3-.4.5-.6.8 0 .1-.1.1-.1.2-.2.3-.3.6-.5.9 0 .1-.1.1-.1.2-.1.3-.3.6-.4 1-.1.3-.2.7-.3 1v.2c-.1.3-.1.7-.2 1v.2c0 .4-.1.7-.1 1.1v1.1c0 .2 0 .4.1.6v.3c0 .2.1.4.1.6 0 .1 0 .2.1.2.1.3.1.5.2.8 0 .1.1.2.1.3v.1c.1.3.2.6.4.9l.3.6c.1.2.2.3.3.5l.1.1.1.1.1.1c.1.1.1.2.2.3.2.3.5.6.7.9 0 0 0 .1.1.1s.1.1.1.1l.4.4.1.1.1.1c.1.1.2.2.3.2l.2.2s.1 0 .1.1c.1.1.2.1.3.2.1.1.2.1.2.2l.1.1h.1l.1.1c.2.1.3.2.5.3.1.1.2.1.3.2l.2.1.1.1h.1l.1.1c.1 0 .2.1.3.1h.1l.9.3h.2c.3.1.6.2.8.2h.1c.3.1.6.1 1 .1h.2c.3 0 .7.1 1 .1.3 0 .7 0 1-.1h.2c.3 0 .7-.1 1-.1.3-.1.6-.1.9-.2l.2-.1h.1c.2-.1.5-.2.7-.3.1 0 .1 0 .2-.1.3-.1.5-.2.8-.4l.2-.1s.1 0 .1-.1c.2-.1.4-.3.6-.4.1 0 .1-.1.2-.1.2-.1.4-.3.6-.4l.1-.1c.1 0 .1-.1.2-.1l.6-.6h.1l.4-.4s0-.1.1-.1l.1-.1.2-.2.1-.1c.1-.1.2-.3.3-.4l.1-.1.1-.1c.1-.2.3-.4.4-.6l.3-.6c.2-.3.3-.6.4-1 0-.1.1-.2.1-.3.4-1.2.6-2.4.6-3.6-.2-.5-.2-.8-.2-1.1zM48 90.2c-.9-.3-1.7-.5-2.6-.6-1-.1-2-.2-2.9-.2h-1.4c-.4 0-.9.1-1.3.1.1-.4.1-.9.1-1.3v-.4-.9c0-1.2-.1-2.5-.3-3.7-.1-.5-.2-.9-.3-1.3l-.6-1.8c-.2-.4-.3-.7-.5-1.1l-.6-.9c-.2-.3-.4-.5-.6-.8 2.1 1.5 4.1 4.7 5 8.8.1.4.2.8.2 1.2.4.1.7.1 1.1.2 4 .9 7.2 2.8 8.7 4.9-1.2-1-2.6-1.7-4-2.2z"/></g></svg>