<svg width="204" height="52" viewBox="0 0 204 52" fill="none" xmlns="http://www.w3.org/2000/svg">
<g clip-path="url(#clip0_4908_4358)">
<path d="M5.13747 45.5688C5.62327 45.8513 6.02277 46.2718 6.2898 46.7817C6.57343 47.3278 6.71684 47.9416 6.70603 48.563C6.7169 49.185 6.5735 49.7994 6.2898 50.3462C6.02236 50.8567 5.62305 51.2784 5.13747 51.5629C4.63816 51.8558 4.07411 52.0066 3.50166 52.0001C2.99591 52.009 2.49607 51.8855 2.0476 51.6408C1.61792 51.4005 1.25956 51.0415 1.01159 50.6028V51.9336H0.171875V42.4282H1.04249V46.4794C1.29791 46.0582 1.65535 45.7152 2.0785 45.4851C2.51742 45.2542 3.00312 45.1375 3.49439 45.1449C4.06787 45.1356 4.63391 45.2816 5.13747 45.5688ZM4.65945 50.8652C5.02609 50.6477 5.32564 50.3252 5.52279 49.9356C5.73639 49.5131 5.84396 49.0408 5.83541 48.563C5.84373 48.0858 5.73617 47.6142 5.52279 47.1923C5.32698 46.8016 5.0271 46.4788 4.65945 46.2627C4.2852 46.0425 3.86195 45.9297 3.43259 45.9357C3.00194 45.9284 2.57721 46.0413 2.2021 46.2627C1.83703 46.4804 1.5393 46.803 1.34421 47.1923C1.13083 47.6142 1.02326 48.0858 1.03158 48.563C1.02304 49.0408 1.1306 49.5131 1.34421 49.9356C1.54037 50.324 1.83784 50.6464 2.2021 50.8652C2.57721 51.0866 3.00194 51.1994 3.43259 51.1922C3.86195 51.1982 4.2852 51.0854 4.65945 50.8652Z" fill="#231F20"/>
<path d="M20.2597 48.8461H14.8652C14.8787 49.1688 14.9541 49.4853 15.0868 49.7769C15.2195 50.0685 15.4068 50.3293 15.6377 50.5438C16.1268 50.9847 16.7571 51.2162 17.4025 51.192C17.7811 51.1971 18.1566 51.1207 18.5058 50.9677C18.8399 50.8186 19.1376 50.5925 19.3764 50.3061L19.8671 50.8974C19.5797 51.2588 19.2113 51.5402 18.7948 51.7167C18.3456 51.9091 17.8642 52.0054 17.3789 52C16.7658 52.0122 16.1601 51.8597 15.6195 51.557C15.1198 51.2731 14.7057 50.8491 14.4235 50.3327C14.1331 49.793 13.9851 49.1822 13.9946 48.5629C13.9854 47.9466 14.1268 47.338 14.4053 46.7949C14.6664 46.2872 15.0572 45.8653 15.5341 45.5763C16.0241 45.2816 16.581 45.1306 17.1462 45.139C17.7092 45.1303 18.2638 45.2814 18.7511 45.5763C19.2232 45.864 19.6096 46.2832 19.8671 46.7873C20.1435 47.3338 20.2829 47.9447 20.2724 48.5629L20.2597 48.8461ZM15.5831 46.5382C15.1535 46.9632 14.8938 47.5426 14.8561 48.1598H19.4291C19.3938 47.5439 19.1374 46.9647 18.7112 46.5382C18.2857 46.1215 17.7198 45.898 17.1371 45.9166C16.5611 45.9019 16.0028 46.1253 15.5831 46.5382Z" fill="#231F20"/>
<path d="M32.2028 45.8008C32.6511 46.2405 32.8759 46.892 32.8771 47.7551V51.9374H32.0429V50.8861C31.8396 51.2436 31.539 51.5295 31.1795 51.7074C30.7553 51.9134 30.2912 52.0143 29.8236 52.0021C29.1051 52.0021 28.5331 51.8227 28.1078 51.4641C27.9024 51.2956 27.7378 51.0789 27.6272 50.8315C27.5167 50.5842 27.4634 50.3131 27.4717 50.0402C27.463 49.777 27.5121 49.5153 27.6151 49.2751C27.7181 49.0348 27.8724 48.8225 28.066 48.6543C28.4623 48.3045 29.0936 48.1296 29.9599 48.1296H32.0065V47.7189C32.0065 47.1372 31.852 46.6962 31.5412 46.3882C31.2304 46.0802 30.776 45.9338 30.1799 45.9338C29.7791 45.9323 29.3812 46.0037 29.0039 46.1449C28.6482 46.2726 28.3193 46.4707 28.0351 46.7285L27.6425 46.0479C27.99 45.7474 28.3891 45.519 28.8185 45.3749C29.2878 45.2145 29.7788 45.1342 30.2725 45.1373C31.1098 45.1386 31.7533 45.3597 32.2028 45.8008ZM31.2213 50.9337C31.5808 50.6901 31.8561 50.3323 32.0065 49.9128V48.8101H29.9836C28.8809 48.8101 28.3296 49.2119 28.3296 50.0154C28.3228 50.1953 28.3584 50.3741 28.4332 50.5362C28.508 50.6983 28.6197 50.8387 28.7585 50.9451C29.1137 51.1971 29.5388 51.3188 29.9672 51.2911C30.4098 51.2993 30.8452 51.1739 31.2213 50.9298V50.9337Z" fill="#231F20"/>
<path d="M46.8842 45.1903V51.9353H46.0499V50.7053C45.8259 51.1076 45.4993 51.4368 45.1066 51.6559C44.6838 51.8881 44.2118 52.0052 43.7343 51.9962C42.8934 51.9962 42.227 51.7503 41.735 51.2585C41.243 50.7668 41.0007 50.0469 41.008 49.0989V45.1865H41.8786V49.0077C41.8786 49.7187 42.0464 50.2573 42.3821 50.6236C42.7177 50.9899 43.1957 51.1736 43.8161 51.1749C44.4935 51.1749 45.0284 50.9594 45.421 50.5285C45.8136 50.0976 46.0099 49.4969 46.0099 48.7263V45.1865L46.8842 45.1903Z" fill="#231F20"/>
<path d="M58.6855 51.5247C58.5098 51.6858 58.3035 51.8063 58.0802 51.8783C57.8363 51.9592 57.5819 52.0002 57.3259 52C56.7201 52 56.2542 51.8289 55.9282 51.4867C55.6023 51.1445 55.4387 50.6616 55.4375 50.0381V45.9679H54.2852V45.2075H55.4375V43.7341H56.3081V45.2075H58.2693V45.9679H56.3008V49.9944C56.2784 50.3277 56.3822 50.6568 56.5898 50.9107C56.6993 51.0202 56.8294 51.1046 56.9717 51.1586C57.1141 51.2126 57.2657 51.235 57.4168 51.2244C57.5937 51.2255 57.7694 51.1953 57.9366 51.135C58.0969 51.0805 58.2451 50.9933 58.3729 50.8783L58.6855 51.5247Z" fill="#231F20"/>
<path d="M66.1388 43.5249C66.0803 43.4646 66.0341 43.3927 66.0028 43.3133C65.9716 43.2339 65.956 43.1487 65.9571 43.0629C65.9566 42.9791 65.9725 42.8961 66.0037 42.819C66.035 42.7418 66.081 42.6722 66.1388 42.6142C66.198 42.5516 66.2689 42.5024 66.3471 42.4697C66.4253 42.4369 66.5091 42.4214 66.5932 42.4241C66.677 42.4226 66.7602 42.4386 66.8379 42.4713C66.9156 42.5039 66.9863 42.5525 67.0458 42.6142C67.1041 42.6706 67.1503 42.7392 67.1816 42.8155C67.2129 42.8918 67.2286 42.9741 67.2276 43.0572C67.2299 43.1452 67.215 43.2328 67.1837 43.3145C67.1525 43.3963 67.1055 43.4704 67.0458 43.5324C66.9866 43.5946 66.916 43.6435 66.8382 43.6762C66.7604 43.7089 66.677 43.7246 66.5932 43.7225C66.5086 43.7238 66.4246 43.7069 66.3465 43.6729C66.2683 43.6389 66.1977 43.5885 66.1388 43.5249ZM66.1516 45.1902H67.0222V51.9352H66.1516V45.1902Z" fill="#231F20"/>
<path d="M76.6927 43.447C76.4829 43.7129 76.3799 44.0537 76.4056 44.3975V45.1922H78.3904V45.9526H76.4292V51.9276H75.5586V45.9678H74.4062V45.2074H75.5586V44.3747C75.545 44.1077 75.5831 43.8407 75.6705 43.5895C75.758 43.3383 75.893 43.1081 76.0675 42.9128C76.408 42.5541 76.8884 42.3748 77.5088 42.3748C77.7495 42.3742 77.989 42.4108 78.2195 42.4831C78.4298 42.5469 78.6257 42.6542 78.7957 42.7987L78.5012 43.4774C78.2313 43.2495 77.8918 43.1313 77.5452 43.1447C77.3908 43.1305 77.2353 43.1501 77.0886 43.2021C76.9418 43.2542 76.807 43.3375 76.6927 43.447Z" fill="#231F20"/>
<path d="M91.5107 45.1906V51.9356H90.6728V50.7056C90.4486 51.1084 90.1213 51.4376 89.7277 51.6561C89.3049 51.8884 88.8329 52.0054 88.3554 51.9964C87.5145 51.9964 86.848 51.7505 86.3561 51.2588C85.8641 50.767 85.6218 50.0472 85.6291 49.0992V45.1868H86.4997V49.0079C86.4997 49.7189 86.6669 50.2576 87.0013 50.6238C87.3358 50.9901 87.8138 51.1739 88.4354 51.1751C88.7316 51.1914 89.0277 51.1423 89.3046 51.031C89.5814 50.9196 89.8327 50.7485 90.0421 50.5288C90.4347 50.0979 90.6304 49.4971 90.6292 48.7266V45.1868L91.5107 45.1906Z" fill="#231F20"/>
<path d="M99.7812 42.4224H100.652V51.9277H99.7812V42.4224Z" fill="#231F20"/>
<path d="M119.949 51.5629C119.451 51.2801 119.041 50.8556 118.765 50.3386C118.475 49.7966 118.327 49.1841 118.336 48.563C118.327 47.9443 118.475 47.3342 118.765 46.795C119.043 46.2809 119.453 45.8587 119.949 45.5764C120.473 45.2795 121.062 45.129 121.659 45.1392C122.174 45.1299 122.683 45.2464 123.147 45.4795C123.578 45.6988 123.938 46.0443 124.183 46.4737L123.535 46.9357C123.334 46.6139 123.055 46.3545 122.726 46.1848C122.393 46.0169 122.028 45.9317 121.659 45.9357C121.22 45.9283 120.787 46.041 120.403 46.2627C120.032 46.4771 119.73 46.8002 119.532 47.1923C119.319 47.6142 119.211 48.0858 119.22 48.563C119.21 49.0428 119.317 49.5173 119.532 49.9413C119.732 50.3302 120.034 50.6509 120.403 50.8652C120.787 51.0869 121.22 51.1996 121.659 51.1922C122.027 51.1953 122.392 51.1122 122.726 50.9488C123.055 50.7827 123.335 50.5257 123.535 50.2055L124.183 50.6656C123.937 51.0966 123.575 51.4423 123.142 51.6598C122.679 51.8913 122.172 52.0078 121.659 52.0001C121.062 52.0104 120.473 51.8598 119.949 51.5629Z" fill="#231F20"/>
<path d="M137.011 45.8768C137.496 46.3686 137.735 47.0846 137.729 48.025V51.9355H136.859V48.1144C136.859 47.4148 136.692 46.8787 136.357 46.5118C136.023 46.1449 135.543 45.9605 134.923 45.9605C134.226 45.9605 133.676 46.1766 133.273 46.6087C132.869 47.0409 132.667 47.6372 132.667 48.3976V51.9355H131.797V42.4302H132.66V46.3787C132.898 45.9841 133.237 45.6683 133.64 45.4681C134.088 45.2474 134.579 45.1375 135.074 45.1468C135.888 45.1417 136.534 45.3851 137.011 45.8768Z" fill="#231F20"/>
<path d="M150.181 45.8005C150.632 46.2403 150.857 46.8917 150.856 47.7548V51.9372H150.023V50.8859C149.819 51.2431 149.518 51.5289 149.158 51.7071C148.734 51.9132 148.271 52.014 147.804 52.0018C147.084 52.0018 146.512 51.8225 146.088 51.4638C145.882 51.2954 145.717 51.0788 145.607 50.8315C145.496 50.5841 145.442 50.313 145.45 50.0399C145.442 49.7768 145.491 49.5153 145.594 49.2751C145.697 49.0349 145.851 48.8225 146.044 48.654C146.441 48.3042 147.072 48.1293 147.938 48.1293H149.985V47.7187C149.985 47.137 149.83 46.6959 149.52 46.3879C149.209 46.08 148.756 45.9336 148.16 45.9336C147.759 45.9322 147.36 46.0036 146.982 46.1446C146.627 46.2728 146.298 46.4709 146.014 46.7282L145.621 46.0477C145.969 45.7467 146.369 45.5183 146.799 45.3747C147.268 45.2142 147.759 45.134 148.253 45.137C149.09 45.1383 149.733 45.3595 150.181 45.8005ZM149.202 50.9334C149.56 50.6887 149.834 50.3311 149.985 49.9125V48.8099H147.964C146.86 48.8099 146.308 49.2117 146.308 50.0152C146.302 50.195 146.338 50.3736 146.412 50.5356C146.487 50.6976 146.598 50.8381 146.737 50.9448C147.091 51.193 147.513 51.3125 147.938 51.2851C148.382 51.2959 148.82 51.1724 149.198 50.9296L149.202 50.9334Z" fill="#231F20"/>
<path d="M164.3 45.8767C164.779 46.3684 165.018 47.0845 165.017 48.0249V51.9354H164.146V48.1142C164.146 47.4147 163.979 46.8785 163.644 46.5116C163.31 46.1447 162.83 45.9603 162.21 45.9603C161.513 45.9603 160.963 46.1764 160.56 46.6086C160.156 47.0408 159.955 47.6371 159.955 48.3975V51.9354H159.084V45.1904H159.924V46.4356C160.161 46.0283 160.503 45.6989 160.911 45.485C161.366 45.2503 161.868 45.1336 162.376 45.1448C163.18 45.141 163.822 45.3849 164.3 45.8767Z" fill="#231F20"/>
<path d="M174.327 51.5627C173.831 51.2788 173.421 50.8545 173.144 50.3384C172.854 49.7963 172.706 49.1838 172.715 48.5628C172.706 47.9441 172.854 47.3339 173.144 46.7948C173.423 46.2815 173.832 45.8595 174.327 45.5762C174.852 45.2793 175.441 45.1287 176.038 45.1389C176.553 45.1297 177.062 45.2462 177.526 45.4792C177.957 45.6986 178.316 46.044 178.562 46.4735L177.913 46.9354C177.713 46.6136 177.434 46.3542 177.105 46.1845C176.772 46.0167 176.407 45.9314 176.038 45.9355C175.599 45.928 175.166 46.0408 174.782 46.2625C174.411 46.4768 174.108 46.8 173.911 47.1921C173.698 47.614 173.59 48.0856 173.599 48.5628C173.589 49.0426 173.696 49.5171 173.911 49.941C174.111 50.3299 174.413 50.6506 174.782 50.865C175.166 51.0867 175.599 51.1994 176.038 51.1919C176.406 51.1951 176.771 51.112 177.105 50.9486C177.434 50.7824 177.714 50.5255 177.913 50.2053L178.562 50.6653C178.316 51.0963 177.954 51.4421 177.521 51.6596C177.058 51.8911 176.551 52.0075 176.038 51.9999C175.441 52.0101 174.852 51.8596 174.327 51.5627Z" fill="#231F20"/>
<path d="M191.824 48.8461H186.432C186.445 49.1689 186.52 49.4855 186.653 49.7772C186.785 50.0689 186.973 50.3296 187.204 50.5438C187.693 50.9847 188.324 51.2162 188.969 51.192C189.348 51.1967 189.723 51.1204 190.072 50.9677C190.406 50.8182 190.704 50.5921 190.943 50.3061L191.434 50.8974C191.145 51.2582 190.776 51.5395 190.359 51.7167C189.91 51.9095 189.429 52.0058 188.944 52C188.331 52.0122 187.726 51.8597 187.186 51.5571C186.686 51.2736 186.272 50.8496 185.99 50.3327C185.7 49.793 185.552 49.1822 185.561 48.5629C185.551 47.9465 185.692 47.3377 185.972 46.7949C186.232 46.2869 186.622 45.8648 187.099 45.5763C187.589 45.2818 188.146 45.1308 188.711 45.139C189.274 45.1303 189.83 45.2814 190.318 45.5763C190.789 45.8645 191.176 46.2837 191.434 46.7873C191.709 47.334 191.848 47.9449 191.837 48.5629L191.824 48.8461ZM187.148 46.5382C186.722 46.9649 186.466 47.5442 186.432 48.1598H191.005C190.97 47.5442 190.714 46.9649 190.289 46.5382C189.862 46.1218 189.296 45.8983 188.713 45.9166C188.133 45.8997 187.571 46.1232 187.148 46.5382Z" fill="#231F20"/>
<path d="M21.1201 4.11586C23.3836 6.11325 24.5153 8.85905 24.5153 12.3532C24.5153 15.8474 23.3812 18.5856 21.1129 20.5677C18.8518 22.5461 15.7219 23.5353 11.7233 23.5353H3.31161V33.879H0V1.11597H11.7233C15.7219 1.1185 18.8542 2.11847 21.1201 4.11586ZM18.7573 18.3739C20.3967 16.9532 21.2171 14.9482 21.2183 12.3589C21.2183 9.70754 20.3979 7.67149 18.7573 6.25076C17.1166 4.83003 14.7447 4.1203 11.6415 4.12157H3.31161V20.4936H11.6342C14.7374 20.4936 17.1094 19.7851 18.75 18.3682L18.7573 18.3739Z" fill="#231F20"/>
<path d="M48.7679 33.883L41.6012 23.3453C40.7688 23.4403 39.9321 23.4872 39.0948 23.486H30.6958V33.8754H27.377V1.1123H39.1021C43.1007 1.1123 46.233 2.111 48.4989 4.10839C50.7648 6.10579 51.8983 8.85156 51.8996 12.3457C51.8996 14.9046 51.2804 17.0654 50.042 18.8284C48.8036 20.5913 47.0364 21.8625 44.7402 22.6419L52.3921 33.8754L48.7679 33.883ZM46.127 18.3911C47.7688 16.9564 48.5892 14.9439 48.5879 12.3533C48.5879 9.70198 47.7676 7.66593 46.127 6.2452C44.4863 4.82446 42.115 4.11472 39.013 4.11598H30.6958V20.545H39.0203C42.1162 20.545 44.4851 19.8271 46.127 18.3911Z" fill="#231F20"/>
<path d="M78.6781 33.3202C77.1729 32.5238 75.8929 31.3298 74.9648 29.8565L76.9333 27.5162C78.6636 30.2006 80.9162 31.5421 83.691 31.5408C87.5685 31.5408 89.5072 29.1385 89.5072 24.3339V4.11596H76.9769V1.11987H92.7697V24.1932C92.7697 27.6265 92.0015 30.2088 90.465 31.94C88.9286 33.6713 86.6536 34.5369 83.6401 34.5369C81.9169 34.5524 80.2152 34.1351 78.6781 33.3202Z" fill="#231F20"/>
<path d="M119.782 30.8888V33.8829H97.6309V1.11987H119.111V4.11596H100.935V15.7695H117.135V18.7181H100.942V30.885L119.782 30.8888Z" fill="#231F20"/>
<path d="M159.032 4.11596H148.023V1.11987H171.032L172.281 4.11596H162.342V33.8829H159.032V4.11596Z" fill="#231F20"/>
<path d="M64.2062 35.2839C62.1334 35.2839 60.1454 34.4226 58.6797 32.8896C57.214 31.3566 56.3906 29.2773 56.3906 27.1093V8.17461C56.3906 6.00657 57.214 3.92734 58.6797 2.3943C60.1454 0.861265 62.1334 0 64.2062 0C66.2781 0.00301757 68.2643 0.865237 69.7294 2.39762C71.1945 3.93 72.0188 6.00749 72.0217 8.17461V27.1093C72.0188 29.2764 71.1945 31.3539 69.7294 32.8863C68.2643 34.4187 66.2781 35.2809 64.2062 35.2839ZM64.2062 3.171C62.9366 3.17049 61.7188 3.69726 60.8204 4.63551C59.922 5.57376 59.4165 6.84671 59.4151 8.17461V27.1093C59.4165 28.4359 59.921 29.7077 60.8178 30.6457C61.7146 31.5837 62.9306 32.1114 64.1989 32.1129C65.4674 32.1114 66.6835 31.5838 67.5806 30.6458C68.4777 29.7078 68.9826 28.436 68.9845 27.1093V8.17461C68.9826 6.84917 68.4787 5.57852 67.5832 4.64075C66.6877 3.70299 65.4734 3.17452 64.2062 3.171Z" fill="#00A8E2"/>
<path d="M204 1.12012L190.069 33.8832H186.797L172.867 1.12012H176.462L188.506 29.6989L200.638 1.12012H204Z" fill="#00A8E2"/>
<path d="M147.319 23.3282C146.267 25.6218 144.617 27.5581 142.559 28.9141C140.501 30.2702 138.119 30.9909 135.687 30.9933C132.264 30.9933 128.982 29.5712 126.562 27.0399C124.142 24.5086 122.782 21.0755 122.782 17.4957C122.782 13.9159 124.142 10.4827 126.562 7.95143C128.982 5.42014 132.264 3.99807 135.687 3.99807C138.119 4.00007 140.501 4.72039 142.559 6.07612C144.617 7.43184 146.267 9.36787 147.319 11.6613H150.615C149.479 8.47898 147.441 5.73567 144.773 3.79896C142.105 1.86225 138.934 0.824668 135.687 0.825196C133.594 0.824945 131.521 1.2562 129.587 2.09433C127.653 2.93246 125.896 4.16103 124.417 5.70978C122.937 7.25853 121.764 9.0971 120.964 11.1204C120.165 13.1437 119.754 15.312 119.756 17.5014C119.756 19.6895 120.167 21.8562 120.968 23.8778C121.768 25.8995 122.942 27.7364 124.421 29.2837C125.9 30.831 127.656 32.0584 129.589 32.8958C131.522 33.7333 133.593 34.1643 135.685 34.1643C138.933 34.1645 142.103 33.1268 144.77 31.1901C147.438 29.2535 149.477 26.5103 150.613 23.3282H147.319Z" fill="#231F20"/>
</g>
<defs>
<clipPath id="clip0_4908_4358">
<rect width="204" height="52" fill="white"/>
</clipPath>
</defs>
</svg>
