<svg data-name="Layer 1" xmlns="http://www.w3.org/2000/svg" viewBox="0 0 165.508 34.833"><path data-name="1" d="M28.166 24.156h-.002a5.867 5.867 0 00-5.74-5.72v-.001H5.872l-.004-.004a2.6 2.6 0 01-.12-.003 2.519 2.519 0 01-2.387-2.487l-.004-.004V10.71l.003-.003c0-.04.002-.08.004-.12a2.51 2.51 0 012.489-2.383h20.34l.209.002a1.673 1.673 0 00.01-3.346H5.856a5.86 5.86 0 00-5.843 5.85h.002l-.002.174v5.074a5.867 5.867 0 005.86 5.82h16.433l.004.004c.04 0 .08.002.12.004a2.519 2.519 0 012.387 2.486l.004.004v4.693l-.003.004c0 .04-.001.08-.004.12a2.519 2.519 0 01-2.486 2.387l-.004.004H1.769v.001l-.086-.002a1.675 1.675 0 00-.017 3.349h.017c.07 0 .137-.004.204-.004h20.456a5.867 5.867 0 005.823-5.86h-.002l.002-.159zm62.907 0h-.002a5.867 5.867 0 00-5.74-5.72v-.001H68.78l-.004-.004a2.6 2.6 0 01-.12-.003 2.519 2.519 0 01-2.387-2.487l-.004-.004V10.71l.004-.003c0-.04 0-.08.003-.12A2.519 2.519 0 0168.759 8.2l.002-.003v.007H89.1a1.71 1.71 0 00.21.005 1.675 1.675 0 00-.001-3.35l-.032.002V4.86H68.763V4.85a5.868 5.868 0 00-5.843 5.86h.002l-.002.173v5.074a5.867 5.867 0 005.86 5.82h16.433l.004.004c.04 0 .08.002.12.004a2.519 2.519 0 012.387 2.486l.004.004v4.693l-.003.004-.003.12a2.519 2.519 0 01-2.487 2.387l-.004.004H64.676v.001l-.086-.002a1.679 1.679 0 00-1.678 1.679 1.651 1.651 0 001.64 1.663h.022c.07 0 .155.005.22.003h20.457a5.867 5.867 0 005.822-5.859h-.001v-.16zm31.39 0h-.003a5.867 5.867 0 00-5.74-5.72v-.001h-16.55l-.004-.004a2.6 2.6 0 01-.12-.003 2.519 2.519 0 01-2.388-2.487l-.004-.004V10.71l.004-.003.003-.12a2.519 2.519 0 012.487-2.387l.002-.003v.007h20.341c.07.002.147.005.217.005a1.674 1.674 0 00-.009-3.35l-.031.002V4.86h-20.516V4.85a5.868 5.868 0 00-5.842 5.86h.001l-.001.173v5.074a5.867 5.867 0 005.86 5.82h16.433l.004.004c.04 0 .08.002.12.004a2.519 2.519 0 012.387 2.486l.004.004v4.693l-.004.004-.003.12a2.519 2.519 0 01-2.487 2.387l-.004.004H96.065v.001q-.042-.002-.086-.002a1.673 1.673 0 10-.004 3.347c.07 0 .143-.003.209-.002h20.456a5.867 5.867 0 005.822-5.86h-.001l.001-.159zm8.46-17.684a1.672 1.672 0 00-3.343 0h-.001v26.76a1.674 1.674 0 003.345 0V6.472zm-3.34-4.13a1.671 1.671 0 003.336 0h.005v-.739h-.003a1.671 1.671 0 00-3.34 0h-.002v.738zM57.621 31.486q-.043 0-.085.003v-.002H36.98l-.003-.004a2.519 2.519 0 01-2.487-2.387 2.616 2.616 0 01-.003-.12l-.004-.004v-9.89h14.87c.072 0 .15.004.22.004a1.66 1.66 0 001.666-1.654v-.015a1.679 1.679 0 00-1.678-1.679H34.492v-.08l-.044-4.972.003-.003c0-.04.001-.08.004-.12a2.506 2.506 0 01.734-1.65 2.56 2.56 0 011.755-.733h20.372l.223.001a1.656 1.656 0 001.664-1.648v-.018a1.678 1.678 0 00-1.678-1.68l-.032.001H36.945a5.859 5.859 0 00-5.838 5.703h-.002v.091l-.002.056h.001v.173l.043 3.291h-.008v14.087l.001.735h-.001l.002.073v.062h.001a5.866 5.866 0 005.819 5.724h20.66a1.672 1.672 0 10.021-3.344h-.02zM165.5 10.737h.009a5.866 5.866 0 00-5.712-5.838v-.002h-.091l-.057-.002v.001h-3.739v-.01h-13.783l-.736.002v-.002l-.073.002h-.061v.002a5.866 5.866 0 00-5.725 5.818V32.95a1.679 1.679 0 103.345.204l-.002-.086h.001V19.083h23.28v13.863a1.679 1.679 0 103.344.208v-.032zm-26.624 5.002v-5.01l.004-.005a2.519 2.519 0 012.388-2.486l.12-.004.003-.003h13.01v.009h5.249l.003.003.12.003a2.519 2.519 0 012.387 2.487l.003.002h-.007v5.004z" fill="#fff"/></svg>