<svg width="116.5" height="90.3" xmlns="http://www.w3.org/2000/svg"><style>.st1{fill:#f79e1b}</style><path fill="none" id="canvas_background" d="M-1-1h582v402H-1z"/><g><path fill="#fff" d="M21.2 90.1v-6c.1-2-1.3-3.7-3.3-3.8h-.5c-1.3-.1-2.6.6-3.4 1.7-.7-1.1-1.9-1.8-3.2-1.7-1.1-.1-2.2.5-2.8 1.4v-1.2H6v9.6h2.1v-5.3c-.2-1.2.7-2.4 1.9-2.5h.4c1.4 0 2.1.9 2.1 2.5v5.3h2.1v-5.3c-.2-1.2.7-2.4 1.9-2.5h.4c1.4 0 2.1.9 2.1 2.5v5.3h2.2zm31.1-9.6h-3.4v-2.9h-2.1v2.9h-1.9v1.9h1.9v4.4c0 2.2.9 3.5 3.3 3.5.9 0 1.8-.3 2.6-.7l-.6-1.8c-.6.3-1.2.5-1.8.5-1 0-1.4-.6-1.4-1.6v-4.4h3.4v-1.8zm17.7-.2c-1 0-2 .5-2.5 1.4v-1.2h-2.1v9.6h2.1v-5.4c0-1.6.7-2.5 2-2.5.4 0 .9.1 1.3.2l.6-2c-.4 0-.9-.1-1.4-.1zm-26.8 1c-1.2-.7-2.5-1-3.9-1-2.4 0-4 1.2-4 3.1 0 1.6 1.2 2.5 3.3 2.8l1 .1c1.1.2 1.7.5 1.7 1 0 .7-.8 1.2-2.2 1.2-1.1 0-2.3-.3-3.2-1l-1 1.6c1.2.8 2.7 1.3 4.1 1.2 2.8 0 4.4-1.3 4.4-3.1s-1.3-2.6-3.3-2.9l-1-.1c-.9-.1-1.6-.3-1.6-.9s.7-1.1 1.8-1.1 2.1.3 3 .8l.9-1.7zm55.7-1c-1 0-2 .5-2.5 1.4v-1.2h-2.1v9.6h2.1v-5.4c0-1.6.7-2.5 2-2.5.4 0 .9.1 1.3.2l.6-2c-.4 0-.9-.1-1.4-.1zm-26.8 5c-.1 2.7 2 4.9 4.6 5h.5c1.2.1 2.5-.3 3.4-1.1l-1-1.7c-.7.5-1.6.8-2.5.9-1.7-.1-2.9-1.6-2.8-3.3.1-1.5 1.3-2.7 2.8-2.8.9 0 1.8.3 2.5.9l1-1.7c-1-.8-2.2-1.2-3.4-1.1-2.7-.2-4.9 1.9-5.1 4.5v.4zm19.5 0v-4.8h-2.1v1.2c-.7-.9-1.8-1.4-3-1.4-2.8 0-5 2.2-5 5s2.2 5 5 5c1.2 0 2.3-.5 3-1.4v1.2h2.1v-4.8zm-7.8 0c.1-1.6 1.5-2.8 3.1-2.7s2.8 1.5 2.7 3.1c-.1 1.5-1.3 2.7-2.9 2.7-1.6 0-2.9-1.2-2.9-2.8v-.3zm-25.1-5c-2.8 0-5 2.3-4.9 5.1s2.3 5 5.1 4.9c1.4.1 2.9-.4 4-1.3l-1-1.5c-.8.6-1.8 1-2.8 1-1.4.1-2.7-.9-2.9-2.3h7.1v-.8c0-3.1-1.9-5.1-4.6-5.1zm0 1.9c1.3 0 2.4 1 2.4 2.3h-5c.1-1.3 1.3-2.4 2.6-2.3zm52.1 3.1v-8.6h-2v5c-.7-.9-1.8-1.4-3-1.4-2.8 0-5 2.2-5 5s2.2 5 5 5c1.2 0 2.3-.5 3-1.4v1.2h2v-4.8zm3.5 3.4c.1 0 .3 0 .4.1.1 0 .2.1.3.2.1.1.2.2.2.3.1.2.1.5 0 .7-.1.1-.1.2-.2.3-.1.1-.2.2-.3.2-.1.1-.2.1-.4.1-.4 0-.7-.2-.9-.6-.1-.2-.1-.5 0-.7.1-.1.1-.2.2-.3.1-.1.2-.2.3-.2.2-.1.3-.1.4-.1zm0 1.7c.1 0 .2 0 .3-.1.1 0 .2-.1.2-.2.3-.3.3-.7 0-1l-.2-.2c-.1 0-.2-.1-.3-.1-.1 0-.2 0-.3.1-.1 0-.2.1-.2.2-.3.3-.3.7 0 1 .1.1.2.1.2.2.1.1.2.1.3.1zm.1-1.2c.1 0 .2 0 .3.1.1.1.1.1.1.2s0 .1-.1.2-.1.1-.2.1l.3.3h-.2l-.3-.3h-.1v.3h-.2v-.9h.4zm-.2.2v.2h.3v-.2h-.3zm-11-4.1c.1-1.6 1.5-2.8 3.1-2.7s2.8 1.5 2.7 3.1c-.1 1.5-1.3 2.7-2.9 2.7-1.6 0-2.9-1.2-2.9-2.8-.1-.1 0-.2 0-.3zm-70.3 0v-4.8h-2.1v1.2c-.7-.9-1.8-1.4-3-1.4-2.8 0-5 2.2-5 5s2.2 5 5 5c1.2 0 2.3-.5 3-1.4v1.2h2.1v-4.8zm-7.7 0c.1-1.6 1.5-2.8 3.1-2.7s2.8 1.5 2.7 3.1c-.1 1.5-1.3 2.7-2.9 2.7-1.6 0-2.9-1.2-2.9-2.8v-.3z" id="_x32_"/><g id="_x31_"><path d="M113.1 58.3v-1.2h.5v-.2h-1.2v.2h.5v1.2h.2zm2.3 0v-1.4h-.4l-.4 1-.4-1h-.3v1.4h.3v-1l.4.9h.3l.4-.9v1.1l.1-.1z" class="st1" id="_x34_"/><path d="M42.5 7.7H74v56.6H42.5V7.7z" fill="#ff5f00" id="_x32__1_"/><path d="M116.5 36c0 19.9-16.1 36-36 36-8.1 0-15.9-2.7-22.2-7.7 15.6-12.3 18.3-34.9 6-50.5-1.8-2.3-3.8-4.3-6.1-6.1 15.6-12.3 38.3-9.6 50.6 6.1 5 6.3 7.7 14.1 7.7 22.2z" class="st1" id="_x33_"/><path fill="#eb001b" d="M44.5 36c0-11 5.1-21.5 13.8-28.3C42.6-4.6 20-1.9 7.7 13.8S-1.9 52 13.8 64.3c13.1 10.3 31.4 10.3 44.5 0A35.87 35.87 0 0144.5 36z" id="_x31__1_"/></g></g></svg>