<svg xmlns="http://www.w3.org/2000/svg" viewBox="0 0 127.6 36"><linearGradient id="a" gradientUnits="userSpaceOnUse" x1="89.993" y1="7.364" x2="127.628" y2="7.364"><stop offset=".01" stop-color="#00a7e3"/><stop offset=".337" stop-color="#009edc"/><stop offset=".875" stop-color="#0085c9"/><stop offset="1" stop-color="#007ec4"/></linearGradient><path d="M115.4 0H90c1.6 8.5 9 14.7 17.7 14.7h19.7c.2-.8.2-1.6.2-2.5 0-6.7-5.5-12.2-12.2-12.2" fill="url(#a)"/><path d="M71.1 3.8C72.1 1.5 74.4 0 77 0h9.7v36H75.3V14.7h-.8l-8.1 17.5c-1.1 2.3-3.4 3.8-6 3.8h-9.7V0h11.5v21.3h.8l8.1-17.5m-43 .9l-4.8 16.5h-.8L17.7 4.7C16.9 1.9 14.4 0 11.4 0H0v36h11.5V14.7h.8L18.8 36H27l6.5-21.3h.8V36h11.5V0H34.4c-2.9 0-5.5 1.9-6.3 4.7m63.5 11.7V36H103V24.5h12.3c5.2 0 9.8-3.3 11.6-8.2 0 .1-35.3.1-35.3.1z" fill="#20aa4d"/></svg>